<?xml version="1.0" encoding="UTF-8" standalone="no"?>
<!DOCTYPE svg PUBLIC "-//W3C//DTD SVG 1.1//EN"
 "http://www.w3.org/Graphics/SVG/1.1/DTD/svg11.dtd">
<!-- Generated by graphviz version 2.26.3 (20100126.1600)
 -->
<!-- Title: models_diagram Pages: 1 -->
<svg width="3898pt" height="546pt"
 viewBox="0.00 0.00 3898.00 546.00" xmlns="http://www.w3.org/2000/svg" xmlns:xlink="http://www.w3.org/1999/xlink">
<g id="graph1" class="graph" transform="scale(1 1) rotate(0) translate(4 542)">
<title>models_diagram</title>
<polygon fill="white" stroke="white" points="-4,5 -4,-542 3895,-542 3895,5 -4,5"/>
<!-- _diagram_info -->
<g id="node1" class="node"><title>_diagram_info</title>
<text text-anchor="start" x="8" y="-521.8" font-family="Times Roman,serif" font-size="13.00">Models diagram</text>
<text text-anchor="start" x="8" y="-504.8" font-family="Times Roman,serif" font-size="13.00">Date: May 03 2011 &#45; 17:11</text>
<text text-anchor="start" x="8" y="-487.8" font-family="Times Roman,serif" font-size="13.00">Migration version: 201104258152130</text>
<text text-anchor="start" x="8" y="-470.8" font-family="Times Roman,serif" font-size="13.00">Generated by RailRoady 1.0.2</text>
<text text-anchor="start" x="8" y="-453.8" font-family="Times Roman,serif" font-size="13.00">http://railroady.prestonlee.com</text>
</g>
<!-- Tableless -->
<g id="node2" class="node"><title>Tableless</title>
<ellipse fill="none" stroke="black" cx="330" cy="-491" rx="53.9477" ry="18.3848"/>
<text text-anchor="middle" x="330" y="-487.4" font-family="Times Roman,serif" font-size="14.00">Tableless</text>
</g>
<!-- ImportacionVacia -->
<g id="node5" class="node"><title>ImportacionVacia</title>
<ellipse fill="none" stroke="black" cx="231" cy="-387" rx="94.7523" ry="18.3848"/>
<text text-anchor="middle" x="231" y="-383.4" font-family="Times Roman,serif" font-size="14.00">ImportacionVacia</text>
</g>
<!-- Tableless&#45;&gt;ImportacionVacia -->
<g id="edge6" class="edge"><title>Tableless&#45;&gt;ImportacionVacia</title>
<path fill="none" stroke="black" d="M313.206,-473.358C295.222,-454.465 266.812,-424.621 248.544,-405.43"/>
</g>
<!-- BusquedaVacia -->
<g id="node9" class="node"><title>BusquedaVacia</title>
<ellipse fill="none" stroke="black" cx="429" cy="-387" rx="84.8528" ry="18.3848"/>
<text text-anchor="middle" x="429" y="-383.4" font-family="Times Roman,serif" font-size="14.00">BusquedaVacia</text>
</g>
<!-- Tableless&#45;&gt;BusquedaVacia -->
<g id="edge24" class="edge"><title>Tableless&#45;&gt;BusquedaVacia</title>
<path fill="none" stroke="black" d="M346.794,-473.358C364.778,-454.465 393.188,-424.621 411.456,-405.43"/>
</g>
<!-- Pais -->
<g id="node3" class="node"><title>Pais</title>
<ellipse fill="none" stroke="black" cx="940" cy="-295" rx="31.1127" ry="18.3848"/>
<text text-anchor="middle" x="940" y="-291.4" font-family="Times Roman,serif" font-size="14.00">Pais</text>
</g>
<!-- Representante -->
<g id="node16" class="node"><title>Representante</title>
<ellipse fill="none" stroke="black" cx="986" cy="-203" rx="82.939" ry="18.3848"/>
<text text-anchor="middle" x="986" y="-199.4" font-family="Times Roman,serif" font-size="14.00">Representante</text>
</g>
<!-- Pais&#45;&gt;Representante -->
<g id="edge2" class="edge"><title>Pais&#45;&gt;Representante</title>
<path fill="none" stroke="black" d="M944.145,-268.503C946.272,-259.15 949.415,-248.782 954,-240 955.946,-236.273 958.335,-232.605 960.924,-229.111"/>
<ellipse fill="none" stroke="black" cx="943.331" cy="-272.478" rx="4.00001" ry="4.00001"/>
<polygon fill="black" stroke="black" points="960.927,-229.107 970.713,-224.159 964.07,-225.219 967.213,-221.33 967.213,-221.33 967.213,-221.33 964.07,-225.219 963.713,-218.501 960.927,-229.107 960.927,-229.107"/>
</g>
<!-- ReporteMarca -->
<g id="node4" class="node"><title>ReporteMarca</title>
<ellipse fill="none" stroke="black" cx="601" cy="-111" rx="79.196" ry="18.3848"/>
<text text-anchor="middle" x="601" y="-107.4" font-family="Times Roman,serif" font-size="14.00">ReporteMarca</text>
</g>
<!-- ReporteMarcaDetalle -->
<g id="node33" class="node"><title>ReporteMarcaDetalle</title>
<ellipse fill="none" stroke="black" cx="601" cy="-19" rx="113.844" ry="18.3848"/>
<text text-anchor="middle" x="601" y="-15.4" font-family="Times Roman,serif" font-size="14.00">ReporteMarcaDetalle</text>
</g>
<!-- ReporteMarca&#45;&gt;ReporteMarcaDetalle -->
<g id="edge4" class="edge"><title>ReporteMarca&#45;&gt;ReporteMarcaDetalle</title>
<path fill="none" stroke="black" d="M601,-84.029C601,-72.5994 601,-59.2671 601,-47.6601"/>
<ellipse fill="none" stroke="black" cx="601" cy="-88.3824" rx="4" ry="4"/>
<polygon fill="black" stroke="black" points="601,-47.5899 605.5,-37.5898 601,-42.5899 601,-37.5899 601,-37.5899 601,-37.5899 601,-42.5899 596.5,-37.5899 601,-47.5899 601,-47.5899"/>
<text text-anchor="middle" x="682" y="-61.4" font-family="Times Roman,serif" font-size="14.00">reporte_marca_detalles</text>
</g>
<!-- Importacion -->
<g id="node6" class="node"><title>Importacion</title>
<ellipse fill="none" stroke="black" cx="601" cy="-387" rx="68.7979" ry="18.3848"/>
<text text-anchor="middle" x="601" y="-383.4" font-family="Times Roman,serif" font-size="14.00">Importacion</text>
</g>
<!-- Importacion&#45;&gt;ReporteMarca -->
<g id="edge12" class="edge"><title>Importacion&#45;&gt;ReporteMarca</title>
<path fill="none" stroke="black" d="M601,-360.164C601,-308.101 601,-193.79 601,-140.029"/>
<ellipse fill="none" stroke="black" cx="601" cy="-364.462" rx="4" ry="4"/>
<polygon fill="black" stroke="black" points="601,-139.82 605.5,-129.82 601,-134.82 601,-129.82 601,-129.82 601,-129.82 601,-134.82 596.5,-129.821 601,-139.82 601,-139.82"/>
</g>
<!-- Marca -->
<g id="node35" class="node"><title>Marca</title>
<ellipse fill="none" stroke="black" cx="1051" cy="-295" rx="41.0122" ry="18.3848"/>
<text text-anchor="middle" x="1051" y="-291.4" font-family="Times Roman,serif" font-size="14.00">Marca</text>
</g>
<!-- Importacion&#45;&gt;Marca -->
<g id="edge8" class="edge"><title>Importacion&#45;&gt;Marca</title>
<path fill="none" stroke="black" d="M656.842,-371.313C702.123,-359.087 767.757,-342.481 826,-332 893.821,-319.795 912.316,-326.941 980,-314 988.742,-312.329 997.991,-310.157 1006.82,-307.883"/>
<ellipse fill="none" stroke="black" cx="652.773" cy="-372.418" rx="4.00001" ry="4.00001"/>
<polygon fill="black" stroke="black" points="1006.9,-307.862 1017.72,-309.641 1011.73,-306.577 1016.56,-305.292 1016.56,-305.292 1016.56,-305.292 1011.73,-306.577 1015.41,-300.944 1006.9,-307.862 1006.9,-307.862"/>
</g>
<!-- Consultum -->
<g id="node42" class="node"><title>Consultum</title>
<ellipse fill="none" stroke="black" cx="762" cy="-111" rx="63.8479" ry="18.3848"/>
<text text-anchor="middle" x="762" y="-107.4" font-family="Times Roman,serif" font-size="14.00">Consultum</text>
</g>
<!-- Importacion&#45;&gt;Consultum -->
<g id="edge10" class="edge"><title>Importacion&#45;&gt;Consultum</title>
<path fill="none" stroke="black" d="M615.871,-361.506C646.174,-309.559 714.834,-191.857 746.035,-138.369"/>
<ellipse fill="none" stroke="black" cx="613.829" cy="-365.007" rx="4.00002" ry="4.00002"/>
<polygon fill="black" stroke="black" points="746.195,-138.095 755.12,-131.724 748.714,-133.776 751.233,-129.457 751.233,-129.457 751.233,-129.457 748.714,-133.776 747.346,-127.19 746.195,-138.095 746.195,-138.095"/>
<text text-anchor="middle" x="717.5" y="-245.4" font-family="Times Roman,serif" font-size="14.00">consultas</text>
</g>
<!-- Adjunto -->
<g id="node7" class="node"><title>Adjunto</title>
<ellipse fill="none" stroke="black" cx="1365" cy="-19" rx="50.2046" ry="18.3848"/>
<text text-anchor="middle" x="1365" y="-15.4" font-family="Times Roman,serif" font-size="14.00">Adjunto</text>
</g>
<!-- Usuario -->
<g id="node8" class="node"><title>Usuario</title>
<ellipse fill="none" stroke="black" cx="1267" cy="-387" rx="48.7904" ry="18.3848"/>
<text text-anchor="middle" x="1267" y="-383.4" font-family="Times Roman,serif" font-size="14.00">Usuario</text>
</g>
<!-- Post -->
<g id="node31" class="node"><title>Post</title>
<ellipse fill="none" stroke="black" cx="1310" cy="-111" rx="32.0265" ry="18.3848"/>
<text text-anchor="middle" x="1310" y="-107.4" font-family="Times Roman,serif" font-size="14.00">Post</text>
</g>
<!-- Usuario&#45;&gt;Post -->
<g id="edge16" class="edge"><title>Usuario&#45;&gt;Post</title>
<path fill="none" stroke="black" d="M1263.08,-360.071C1261.05,-334.635 1262.65,-297.298 1285,-276 1310.74,-251.467 1420.31,-284.521 1444,-258 1486.75,-210.136 1396.82,-154.297 1344.31,-127.286"/>
<ellipse fill="none" stroke="black" cx="1263.49" cy="-364.22" rx="4" ry="4"/>
<polygon fill="black" stroke="black" points="1344.22,-127.242 1337.32,-118.722 1339.76,-124.991 1335.29,-122.74 1335.29,-122.74 1335.29,-122.74 1339.76,-124.991 1333.27,-126.758 1344.22,-127.242 1344.22,-127.242"/>
</g>
<!-- Usuario&#45;&gt;Marca -->
<g id="edge14" class="edge"><title>Usuario&#45;&gt;Marca</title>
<path fill="none" stroke="black" d="M1226.58,-369.783C1187.59,-353.177 1128.96,-328.204 1090.34,-311.755"/>
<ellipse fill="none" stroke="black" cx="1230.51" cy="-371.46" rx="4.00002" ry="4.00002"/>
<polygon fill="black" stroke="black" points="1090.18,-311.686 1082.74,-303.627 1085.58,-309.727 1080.98,-307.767 1080.98,-307.767 1080.98,-307.767 1085.58,-309.727 1079.21,-311.907 1090.18,-311.686 1090.18,-311.686"/>
</g>
<!-- Usuario&#45;&gt;Consultum -->
<g id="edge18" class="edge"><title>Usuario&#45;&gt;Consultum</title>
<path fill="none" stroke="black" d="M1223.12,-371.895C1218.38,-370.483 1213.61,-369.152 1209,-368 1073.74,-334.213 1008.84,-401.126 900,-314 851.158,-274.901 882.582,-234.755 846,-184 832.117,-164.738 812.206,-147.147 795.253,-134.062"/>
<ellipse fill="none" stroke="black" cx="1227.21" cy="-373.154" rx="4.00001" ry="4.00001"/>
<polygon fill="black" stroke="black" points="795.201,-134.022 789.913,-124.416 791.204,-131.017 787.208,-128.012 787.208,-128.012 787.208,-128.012 791.204,-131.017 784.504,-131.609 795.201,-134.022 795.201,-134.022"/>
<text text-anchor="middle" x="900.5" y="-245.4" font-family="Times Roman,serif" font-size="14.00">consultas</text>
</g>
<!-- Importacione -->
<g id="node48" class="node"><title>Importacione</title>
<ellipse fill="none" stroke="black" cx="1369" cy="-295" rx="75.1594" ry="18.3848"/>
<text text-anchor="middle" x="1369" y="-291.4" font-family="Times Roman,serif" font-size="14.00">Importacione</text>
</g>
<!-- Usuario&#45;&gt;Importacione -->
<g id="edge20" class="edge"><title>Usuario&#45;&gt;Importacione</title>
<path fill="none" stroke="black" d="M1292.39,-364.102C1307.35,-350.61 1326.27,-333.536 1341.57,-319.736"/>
<ellipse fill="none" stroke="black" cx="1289.16" cy="-367.016" rx="4.00002" ry="4.00002"/>
<polygon fill="black" stroke="black" points="1341.78,-319.552 1352.22,-316.196 1345.49,-316.203 1349.2,-312.854 1349.2,-312.854 1349.2,-312.854 1345.49,-316.203 1346.19,-309.513 1341.78,-319.552 1341.78,-319.552"/>
<text text-anchor="middle" x="1375.5" y="-337.4" font-family="Times Roman,serif" font-size="14.00">importaciones</text>
</g>
<!-- InstruccionDetalle -->
<g id="node50" class="node"><title>InstruccionDetalle</title>
<ellipse fill="none" stroke="black" cx="1562" cy="-295" rx="99.9096" ry="18.3848"/>
<text text-anchor="middle" x="1562" y="-291.4" font-family="Times Roman,serif" font-size="14.00">InstruccionDetalle</text>
</g>
<!-- Usuario&#45;&gt;InstruccionDetalle -->
<g id="edge22" class="edge"><title>Usuario&#45;&gt;InstruccionDetalle</title>
<path fill="none" stroke="black" d="M1319.13,-377.275C1350.93,-370.787 1392.22,-361.37 1428,-350 1457.65,-340.579 1489.93,-327.421 1515.38,-316.338"/>
<ellipse fill="none" stroke="black" cx="1315.18" cy="-378.071" rx="4.00001" ry="4.00001"/>
<polygon fill="black" stroke="black" points="1515.62,-316.23 1526.59,-316.322 1520.2,-314.216 1524.78,-312.203 1524.78,-312.203 1524.78,-312.203 1520.2,-314.216 1522.96,-308.084 1515.62,-316.23 1515.62,-316.23"/>
<text text-anchor="middle" x="1544" y="-337.4" font-family="Times Roman,serif" font-size="14.00">instruccion_detalles</text>
</g>
<!-- Busqueda -->
<g id="node10" class="node"><title>Busqueda</title>
<polygon fill="none" stroke="black" points="3184,-509 3100,-509 3100,-473 3184,-473 3184,-509"/>
<text text-anchor="middle" x="3142" y="-487.4" font-family="Times Roman,serif" font-size="14.00">Busqueda</text>
</g>
<!-- UsuarioSession -->
<g id="node11" class="node"><title>UsuarioSession</title>
<polygon fill="none" stroke="black" points="3322,-509 3202,-509 3202,-473 3322,-473 3322,-509"/>
<text text-anchor="middle" x="3262" y="-487.4" font-family="Times Roman,serif" font-size="14.00">UsuarioSession</text>
</g>
<!-- Agente -->
<g id="node12" class="node"><title>Agente</title>
<ellipse fill="none" stroke="black" cx="890" cy="-111" rx="46.1672" ry="18.3848"/>
<text text-anchor="middle" x="890" y="-107.4" font-family="Times Roman,serif" font-size="14.00">Agente</text>
</g>
<!-- MarcaEstado -->
<g id="node13" class="node"><title>MarcaEstado</title>
<ellipse fill="none" stroke="black" cx="853" cy="-387" rx="73.0388" ry="18.3848"/>
<text text-anchor="middle" x="853" y="-383.4" font-family="Times Roman,serif" font-size="14.00">MarcaEstado</text>
</g>
<!-- MarcaEstado&#45;&gt;Marca -->
<g id="edge28" class="edge"><title>MarcaEstado&#45;&gt;Marca</title>
<path fill="none" stroke="black" d="M895.819,-367.104C930.658,-350.917 979.372,-328.282 1012.88,-312.713"/>
<ellipse fill="none" stroke="black" cx="892.026" cy="-368.867" rx="4.00002" ry="4.00002"/>
<polygon fill="black" stroke="black" points="1013.26,-312.536 1024.22,-312.403 1017.79,-310.429 1022.33,-308.322 1022.33,-308.322 1022.33,-308.322 1017.79,-310.429 1020.43,-304.241 1013.26,-312.536 1013.26,-312.536"/>
</g>
<!-- TipoSigno -->
<g id="node14" class="node"><title>TipoSigno</title>
<ellipse fill="none" stroke="black" cx="1002" cy="-387" rx="58.1882" ry="18.3848"/>
<text text-anchor="middle" x="1002" y="-383.4" font-family="Times Roman,serif" font-size="14.00">TipoSigno</text>
</g>
<!-- TipoSigno&#45;&gt;Marca -->
<g id="edge30" class="edge"><title>TipoSigno&#45;&gt;Marca</title>
<path fill="none" stroke="black" d="M1015.73,-361.228C1022.2,-349.067 1029.94,-334.55 1036.51,-322.212"/>
<ellipse fill="none" stroke="black" cx="1013.8" cy="-364.852" rx="4.00002" ry="4.00002"/>
<polygon fill="black" stroke="black" points="1036.57,-322.102 1045.24,-315.391 1038.92,-317.689 1041.27,-313.276 1041.27,-313.276 1041.27,-313.276 1038.92,-317.689 1037.29,-311.16 1036.57,-322.102 1036.57,-322.102"/>
</g>
<!-- Reporte -->
<g id="node15" class="node"><title>Reporte</title>
<ellipse fill="none" stroke="black" cx="3390" cy="-491" rx="50.2046" ry="18.3848"/>
<text text-anchor="middle" x="3390" y="-487.4" font-family="Times Roman,serif" font-size="14.00">Reporte</text>
</g>
<!-- Representante&#45;&gt;ReporteMarca -->
<g id="edge34" class="edge"><title>Representante&#45;&gt;ReporteMarca</title>
<path fill="none" stroke="black" d="M921.266,-187.531C850.369,-170.589 737.313,-143.573 666.222,-126.586"/>
<ellipse fill="none" stroke="black" cx="925.301" cy="-188.495" rx="4.00001" ry="4.00001"/>
<polygon fill="black" stroke="black" points="666.204,-126.581 657.524,-119.88 661.341,-125.419 656.478,-124.257 656.478,-124.257 656.478,-124.257 661.341,-125.419 655.432,-128.634 666.204,-126.581 666.204,-126.581"/>
</g>
<!-- Representante&#45;&gt;Agente -->
<g id="edge26" class="edge"><title>Representante&#45;&gt;Agente</title>
<path fill="none" stroke="black" d="M980.191,-184.421C975.83,-172.846 968.897,-158.258 959,-148 949.185,-137.826 935.957,-129.812 923.709,-123.882"/>
</g>
<!-- Titular -->
<g id="node30" class="node"><title>Titular</title>
<ellipse fill="none" stroke="black" cx="998" cy="-111" rx="43.8406" ry="18.3848"/>
<text text-anchor="middle" x="998" y="-107.4" font-family="Times Roman,serif" font-size="14.00">Titular</text>
</g>
<!-- Representante&#45;&gt;Titular -->
<g id="edge90" class="edge"><title>Representante&#45;&gt;Titular</title>
<path fill="none" stroke="black" d="M988.428,-184.382C990.51,-168.421 993.494,-145.543 995.575,-129.59"/>
</g>
<!-- Representante&#45;&gt;Post -->
<g id="edge32" class="edge"><title>Representante&#45;&gt;Post</title>
<path fill="none" stroke="black" d="M1045.74,-185.884C1062.34,-180.331 1080.16,-173.611 1096,-166 1109.33,-159.593 1110.26,-153.478 1124,-148 1163.92,-132.088 1176.85,-138.392 1219,-130 1235.62,-126.691 1253.92,-122.9 1269.72,-119.579"/>
<ellipse fill="none" stroke="black" cx="1041.5" cy="-187.271" rx="4.00001" ry="4.00001"/>
<polygon fill="black" stroke="black" points="1269.91,-119.538 1280.62,-121.878 1274.8,-118.506 1279.7,-117.474 1279.7,-117.474 1279.7,-117.474 1274.8,-118.506 1278.77,-113.071 1269.91,-119.538 1269.91,-119.538"/>
</g>
<!-- Contacto -->
<g id="node36" class="node"><title>Contacto</title>
<ellipse fill="none" stroke="black" cx="1154" cy="-111" rx="55.8614" ry="18.3848"/>
<text text-anchor="middle" x="1154" y="-107.4" font-family="Times Roman,serif" font-size="14.00">Contacto</text>
</g>
<!-- Representante&#45;&gt;Contacto -->
<g id="edge36" class="edge"><title>Representante&#45;&gt;Contacto</title>
<path fill="none" stroke="black" d="M1034.73,-183.527C1046.78,-178.239 1059.52,-172.238 1071,-166 1076.24,-163.152 1099.95,-147.395 1120.69,-133.472"/>
<ellipse fill="none" stroke="black" cx="1031" cy="-185.137" rx="4.00002" ry="4.00002"/>
<polygon fill="black" stroke="black" points="1120.74,-133.439 1131.55,-131.595 1124.89,-130.65 1129.04,-127.86 1129.04,-127.86 1129.04,-127.86 1124.89,-130.65 1126.53,-124.126 1120.74,-133.439 1120.74,-133.439"/>
</g>
<!-- Representante&#45;&gt;Consultum -->
<g id="edge38" class="edge"><title>Representante&#45;&gt;Consultum</title>
<path fill="none" stroke="black" d="M928.683,-185.114C915.495,-179.871 901.868,-173.493 890,-166 880.164,-159.79 880.96,-154.009 871,-148 855.766,-138.81 837.945,-131.537 821.179,-125.959"/>
<ellipse fill="none" stroke="black" cx="932.647" cy="-186.636" rx="4.00001" ry="4.00001"/>
<polygon fill="black" stroke="black" points="820.987,-125.898 812.82,-118.581 816.222,-124.384 811.457,-122.87 811.457,-122.87 811.457,-122.87 816.222,-124.384 810.094,-127.158 820.987,-125.898 820.987,-125.898"/>
<text text-anchor="middle" x="922.5" y="-153.4" font-family="Times Roman,serif" font-size="14.00">consultas</text>
</g>
<!-- Proyecto -->
<g id="node60" class="node"><title>Proyecto</title>
<ellipse fill="none" stroke="black" cx="1091" cy="-19" rx="53.9477" ry="18.3848"/>
<text text-anchor="middle" x="1091" y="-15.4" font-family="Times Roman,serif" font-size="14.00">Proyecto</text>
</g>
<!-- Representante&#45;&gt;Proyecto -->
<g id="edge40" class="edge"><title>Representante&#45;&gt;Proyecto</title>
<path fill="none" stroke="black" d="M1011.72,-178.933C1024.87,-165.531 1040.32,-147.959 1051,-130 1066.53,-103.895 1077.49,-70.7885 1083.96,-47.5509"/>
<ellipse fill="none" stroke="black" cx="1008.69" cy="-181.957" rx="4.00002" ry="4.00002"/>
<polygon fill="black" stroke="black" points="1084.03,-47.2884 1090.97,-38.794 1085.33,-42.4588 1086.62,-37.6292 1086.62,-37.6292 1086.62,-37.6292 1085.33,-42.4588 1082.28,-36.4644 1084.03,-47.2884 1084.03,-47.2884"/>
</g>
<!-- TipoMarca -->
<g id="node17" class="node"><title>TipoMarca</title>
<ellipse fill="none" stroke="black" cx="1139" cy="-387" rx="60.8112" ry="18.3848"/>
<text text-anchor="middle" x="1139" y="-383.4" font-family="Times Roman,serif" font-size="14.00">TipoMarca</text>
</g>
<!-- TipoMarca&#45;&gt;Marca -->
<g id="edge42" class="edge"><title>TipoMarca&#45;&gt;Marca</title>
<path fill="none" stroke="black" d="M1115.81,-362.755C1103.1,-349.463 1087.37,-333.023 1074.59,-319.666"/>
<ellipse fill="none" stroke="black" cx="1118.85" cy="-365.933" rx="4.00002" ry="4.00002"/>
<polygon fill="black" stroke="black" points="1074.37,-319.431 1070.71,-309.094 1070.91,-315.818 1067.46,-312.205 1067.46,-312.205 1067.46,-312.205 1070.91,-315.818 1064.21,-315.316 1074.37,-319.431 1074.37,-319.431"/>
</g>
<!-- Proyecto::Area -->
<g id="node18" class="node"><title>Proyecto::Area</title>
<ellipse fill="none" stroke="black" cx="2998" cy="-491" rx="84.1457" ry="18.3848"/>
<text text-anchor="middle" x="2998" y="-487.4" font-family="Times Roman,serif" font-size="14.00">Proyecto::Area</text>
</g>
<!-- Proyecto::Proyecto -->
<g id="node21" class="node"><title>Proyecto::Proyecto</title>
<ellipse fill="none" stroke="black" cx="2526" cy="-387" rx="103.945" ry="18.3848"/>
<text text-anchor="middle" x="2526" y="-383.4" font-family="Times Roman,serif" font-size="14.00">Proyecto::Proyecto</text>
</g>
<!-- Proyecto::Area&#45;&gt;Proyecto::Proyecto -->
<g id="edge44" class="edge"><title>Proyecto::Area&#45;&gt;Proyecto::Proyecto</title>
<path fill="none" stroke="black" d="M2930.22,-476.065C2843.01,-456.85 2691.98,-423.572 2601.28,-403.588"/>
<ellipse fill="none" stroke="black" cx="2934.31" cy="-476.968" rx="4.00001" ry="4.00001"/>
<polygon fill="black" stroke="black" points="2601.11,-403.549 2592.31,-397.003 2596.23,-402.474 2591.34,-401.398 2591.34,-401.398 2591.34,-401.398 2596.23,-402.474 2590.37,-405.792 2601.11,-403.549 2601.11,-403.549"/>
</g>
<!-- Proyecto::Usuario -->
<g id="node64" class="node"><title>Proyecto::Usuario</title>
<ellipse fill="none" stroke="black" cx="3156" cy="-387" rx="97.7889" ry="18.3848"/>
<text text-anchor="middle" x="3156" y="-383.4" font-family="Times Roman,serif" font-size="14.00">Proyecto::Usuario</text>
</g>
<!-- Proyecto::Area&#45;&gt;Proyecto::Usuario -->
<g id="edge46" class="edge"><title>Proyecto::Area&#45;&gt;Proyecto::Usuario</title>
<path fill="none" stroke="black" d="M3031.52,-468.937C3057.55,-451.803 3093.57,-428.093 3120.17,-410.585"/>
<ellipse fill="none" stroke="black" cx="3028.14" cy="-471.159" rx="4.00002" ry="4.00002"/>
<polygon fill="black" stroke="black" points="3120.45,-410.401 3131.28,-408.662 3124.62,-407.652 3128.8,-404.903 3128.8,-404.903 3128.8,-404.903 3124.62,-407.652 3126.33,-401.144 3120.45,-410.401 3120.45,-410.401"/>
</g>
<!-- Proyecto::Correspondencia -->
<g id="node19" class="node"><title>Proyecto::Correspondencia</title>
<ellipse fill="none" stroke="black" cx="3600" cy="-491" rx="142.128" ry="18.3848"/>
<text text-anchor="middle" x="3600" y="-487.4" font-family="Times Roman,serif" font-size="14.00">Proyecto::Correspondencia</text>
</g>
<!-- Proyecto::InstruccionDetalle -->
<g id="node20" class="node"><title>Proyecto::InstruccionDetalle</title>
<ellipse fill="none" stroke="black" cx="2489" cy="-111" rx="149.907" ry="18.3848"/>
<text text-anchor="middle" x="2489" y="-107.4" font-family="Times Roman,serif" font-size="14.00">Proyecto::InstruccionDetalle</text>
</g>
<!-- Proyecto::ItemCobro -->
<g id="node27" class="node"><title>Proyecto::ItemCobro</title>
<ellipse fill="none" stroke="black" cx="2183" cy="-203" rx="111.222" ry="18.3848"/>
<text text-anchor="middle" x="2183" y="-199.4" font-family="Times Roman,serif" font-size="14.00">Proyecto::ItemCobro</text>
</g>
<!-- Proyecto::InstruccionDetalle&#45;&gt;Proyecto::ItemCobro -->
<g id="edge48" class="edge"><title>Proyecto::InstruccionDetalle&#45;&gt;Proyecto::ItemCobro</title>
<path fill="none" stroke="black" d="M2357.58,-122.954C2291.86,-129.928 2223.59,-139.085 2211,-148 2201.79,-154.522 2195.42,-164.989 2191.11,-175.05"/>
<polygon fill="black" stroke="black" points="2357.73,-122.939 2368.15,-126.373 2362.7,-122.418 2367.68,-121.898 2367.68,-121.898 2367.68,-121.898 2362.7,-122.418 2367.21,-117.422 2357.73,-122.939 2357.73,-122.939"/>
<polygon fill="black" stroke="black" points="2191.1,-175.068 2183.37,-182.846 2189.34,-179.749 2187.58,-184.429 2187.58,-184.429 2187.58,-184.429 2189.34,-179.749 2191.8,-186.012 2191.1,-175.068 2191.1,-175.068"/>
</g>
<!-- Proyecto::Adjunto -->
<g id="node67" class="node"><title>Proyecto::Adjunto</title>
<ellipse fill="none" stroke="black" cx="2489" cy="-19" rx="98.9949" ry="18.3848"/>
<text text-anchor="middle" x="2489" y="-15.4" font-family="Times Roman,serif" font-size="14.00">Proyecto::Adjunto</text>
</g>
<!-- Proyecto::InstruccionDetalle&#45;&gt;Proyecto::Adjunto -->
<g id="edge50" class="edge"><title>Proyecto::InstruccionDetalle&#45;&gt;Proyecto::Adjunto</title>
<path fill="none" stroke="black" d="M2489,-84.029C2489,-72.5994 2489,-59.2671 2489,-47.6601"/>
<ellipse fill="none" stroke="black" cx="2489" cy="-88.3824" rx="4" ry="4"/>
<polygon fill="black" stroke="black" points="2489,-47.5899 2493.5,-37.5898 2489,-42.5899 2489,-37.5899 2489,-37.5899 2489,-37.5899 2489,-42.5899 2484.5,-37.5899 2489,-47.5899 2489,-47.5899"/>
</g>
<!-- Proyecto::ItemGasto -->
<g id="node22" class="node"><title>Proyecto::ItemGasto</title>
<ellipse fill="none" stroke="black" cx="2957" cy="-203" rx="111.222" ry="18.3848"/>
<text text-anchor="middle" x="2957" y="-199.4" font-family="Times Roman,serif" font-size="14.00">Proyecto::ItemGasto</text>
</g>
<!-- Proyecto::Proyecto&#45;&gt;Proyecto::ItemGasto -->
<g id="edge62" class="edge"><title>Proyecto::Proyecto&#45;&gt;Proyecto::ItemGasto</title>
<path fill="none" stroke="black" d="M2627.63,-377.843C2724.81,-367.275 2862.64,-346.98 2905,-314 2931.12,-293.664 2944.7,-257.054 2951.33,-231.458"/>
<ellipse fill="none" stroke="black" cx="2623.51" cy="-378.285" rx="4" ry="4"/>
<polygon fill="black" stroke="black" points="2951.37,-231.304 2958.07,-222.623 2952.53,-226.44 2953.69,-221.577 2953.69,-221.577 2953.69,-221.577 2952.53,-226.44 2949.31,-220.532 2951.37,-231.304 2951.37,-231.304"/>
<text text-anchor="middle" x="2975.5" y="-291.4" font-family="Times Roman,serif" font-size="14.00">item_gastos</text>
</g>
<!-- Proyecto::Instruccion -->
<g id="node25" class="node"><title>Proyecto::Instruccion</title>
<ellipse fill="none" stroke="black" cx="2714" cy="-203" rx="114.051" ry="18.3848"/>
<text text-anchor="middle" x="2714" y="-199.4" font-family="Times Roman,serif" font-size="14.00">Proyecto::Instruccion</text>
</g>
<!-- Proyecto::Proyecto&#45;&gt;Proyecto::Instruccion -->
<g id="edge56" class="edge"><title>Proyecto::Proyecto&#45;&gt;Proyecto::Instruccion</title>
<path fill="none" stroke="black" d="M2580.48,-366.386C2588.33,-361.812 2595.83,-356.381 2602,-350 2627.03,-324.112 2614.01,-305.263 2635,-276 2647.97,-257.908 2666,-240.835 2681.55,-227.756"/>
<ellipse fill="none" stroke="black" cx="2576.71" cy="-368.437" rx="4.00002" ry="4.00002"/>
<polygon fill="black" stroke="black" points="2681.69,-227.641 2692.28,-224.774 2685.56,-224.468 2689.42,-221.296 2689.42,-221.296 2689.42,-221.296 2685.56,-224.468 2686.57,-217.818 2681.69,-227.641 2681.69,-227.641"/>
</g>
<!-- Proyecto::ProyectoItem -->
<g id="node26" class="node"><title>Proyecto::ProyectoItem</title>
<ellipse fill="none" stroke="black" cx="2770" cy="-295" rx="126.072" ry="18.3848"/>
<text text-anchor="middle" x="2770" y="-291.4" font-family="Times Roman,serif" font-size="14.00">Proyecto::ProyectoItem</text>
</g>
<!-- Proyecto::Proyecto&#45;&gt;Proyecto::ProyectoItem -->
<g id="edge58" class="edge"><title>Proyecto::Proyecto&#45;&gt;Proyecto::ProyectoItem</title>
<path fill="none" stroke="black" d="M2581.13,-367.763C2596.95,-362.142 2614.19,-355.916 2630,-350 2658.97,-339.159 2691.11,-326.575 2717.27,-316.182"/>
<ellipse fill="none" stroke="black" cx="2577.26" cy="-369.134" rx="4.00001" ry="4.00001"/>
<polygon fill="black" stroke="black" points="2717.34,-316.157 2728.29,-316.641 2721.98,-314.308 2726.63,-312.46 2726.63,-312.46 2726.63,-312.46 2721.98,-314.308 2724.96,-308.279 2717.34,-316.157 2717.34,-316.157"/>
</g>
<!-- Proyecto::Proyecto&#45;&gt;Proyecto::ItemCobro -->
<g id="edge60" class="edge"><title>Proyecto::Proyecto&#45;&gt;Proyecto::ItemCobro</title>
<path fill="none" stroke="black" d="M2424.23,-377.941C2337.47,-367.948 2222.16,-348.508 2192,-314 2172.52,-291.709 2173.12,-256.371 2176.75,-231.569"/>
<ellipse fill="none" stroke="black" cx="2428.29" cy="-378.4" rx="4.00001" ry="4.00001"/>
<polygon fill="black" stroke="black" points="2176.76,-231.512 2182.88,-222.411 2177.6,-226.583 2178.45,-221.654 2178.45,-221.654 2178.45,-221.654 2177.6,-226.583 2174.01,-220.897 2176.76,-231.512 2176.76,-231.512"/>
<text text-anchor="middle" x="2233.5" y="-291.4" font-family="Times Roman,serif" font-size="14.00">item_cobros</text>
</g>
<!-- Proyecto::Proyecto&#45;&gt;Proyecto::Adjunto -->
<g id="edge64" class="edge"><title>Proyecto::Proyecto&#45;&gt;Proyecto::Adjunto</title>
<path fill="none" stroke="black" d="M2425.02,-377.752C2283.7,-363.421 2044,-333.449 2044,-295 2044,-295 2044,-295 2044,-111 2044,-75.6557 2262.07,-44.712 2392.89,-29.3278"/>
<ellipse fill="none" stroke="black" cx="2429.37" cy="-378.189" rx="4" ry="4"/>
<polygon fill="black" stroke="black" points="2393,-29.3151 2403.46,-32.627 2397.97,-28.7362 2402.94,-28.1573 2402.94,-28.1573 2402.94,-28.1573 2397.97,-28.7362 2402.41,-23.6875 2393,-29.3151 2393,-29.3151"/>
</g>
<!-- Proyecto::Contacto -->
<g id="node69" class="node"><title>Proyecto::Contacto</title>
<ellipse fill="none" stroke="black" cx="1911" cy="-295" rx="104.86" ry="18.3848"/>
<text text-anchor="middle" x="1911" y="-291.4" font-family="Times Roman,serif" font-size="14.00">Proyecto::Contacto</text>
</g>
<!-- Proyecto::Proyecto&#45;&gt;Proyecto::Contacto -->
<g id="edge52" class="edge"><title>Proyecto::Proyecto&#45;&gt;Proyecto::Contacto</title>
<path fill="none" stroke="black" d="M2413.26,-383.26C2289.73,-378.335 2099.82,-368.103 2030,-350 2002.31,-342.82 1973.13,-329.434 1950.59,-317.665"/>
<polygon fill="black" stroke="black" points="2413.53,-383.27 2423.34,-388.159 2418.52,-383.467 2423.52,-383.663 2423.52,-383.663 2423.52,-383.663 2418.52,-383.467 2423.7,-379.166 2413.53,-383.27 2413.53,-383.27"/>
<polygon fill="black" stroke="black" points="1950.5,-317.617 1943.79,-308.942 1946.09,-315.265 1941.67,-312.913 1941.67,-312.913 1941.67,-312.913 1946.09,-315.265 1939.56,-316.885 1950.5,-317.617 1950.5,-317.617"/>
</g>
<!-- Proyecto::Correspondencium -->
<g id="node71" class="node"><title>Proyecto::Correspondencium</title>
<ellipse fill="none" stroke="black" cx="2436" cy="-295" rx="152.028" ry="18.3848"/>
<text text-anchor="middle" x="2436" y="-291.4" font-family="Times Roman,serif" font-size="14.00">Proyecto::Correspondencium</text>
</g>
<!-- Proyecto::Proyecto&#45;&gt;Proyecto::Correspondencium -->
<g id="edge54" class="edge"><title>Proyecto::Proyecto&#45;&gt;Proyecto::Correspondencium</title>
<path fill="none" stroke="black" d="M2497.38,-363.454C2492.47,-359.107 2487.5,-354.512 2483,-350 2474.09,-341.055 2464.92,-330.652 2457.08,-321.316"/>
<ellipse fill="none" stroke="black" cx="2500.52" cy="-366.18" rx="4.00002" ry="4.00002"/>
<polygon fill="black" stroke="black" points="2456.95,-321.154 2454.04,-310.581 2453.76,-317.302 2450.57,-313.45 2450.57,-313.45 2450.57,-313.45 2453.76,-317.302 2447.11,-316.32 2456.95,-321.154 2456.95,-321.154"/>
<text text-anchor="middle" x="2542.5" y="-337.4" font-family="Times Roman,serif" font-size="14.00">correspondencias</text>
</g>
<!-- Proyecto::ItemGasto&#45;&gt;Proyecto::Adjunto -->
<g id="edge66" class="edge"><title>Proyecto::ItemGasto&#45;&gt;Proyecto::Adjunto</title>
<path fill="none" stroke="black" d="M2959.47,-176.284C2958.99,-166.372 2956.63,-155.684 2950,-148 2901.59,-91.9405 2697.12,-51.4095 2577.36,-31.959"/>
<ellipse fill="none" stroke="black" cx="2959.47" cy="-180.345" rx="4" ry="4"/>
<polygon fill="black" stroke="black" points="2577.34,-31.9559 2568.19,-25.9258 2572.41,-31.1623 2567.47,-30.3687 2567.47,-30.3687 2567.47,-30.3687 2572.41,-31.1623 2566.76,-34.8117 2577.34,-31.9559 2577.34,-31.9559"/>
</g>
<!-- Proyecto::Item -->
<g id="node23" class="node"><title>Proyecto::Item</title>
<ellipse fill="none" stroke="black" cx="2957" cy="-387" rx="82.939" ry="18.3848"/>
<text text-anchor="middle" x="2957" y="-383.4" font-family="Times Roman,serif" font-size="14.00">Proyecto::Item</text>
</g>
<!-- Proyecto::Item&#45;&gt;Proyecto::ProyectoItem -->
<g id="edge70" class="edge"><title>Proyecto::Item&#45;&gt;Proyecto::ProyectoItem</title>
<path fill="none" stroke="black" d="M2915.5,-366.584C2885.85,-351.997 2845.97,-332.377 2815.46,-317.366"/>
<ellipse fill="none" stroke="black" cx="2919.11" cy="-368.36" rx="4.00002" ry="4.00002"/>
<polygon fill="black" stroke="black" points="2815.29,-317.281 2808.3,-308.829 2810.8,-315.074 2806.32,-312.866 2806.32,-312.866 2806.32,-312.866 2810.8,-315.074 2804.33,-316.904 2815.29,-317.281 2815.29,-317.281"/>
</g>
<!-- Proyecto::TipoInstruccion -->
<g id="node24" class="node"><title>Proyecto::TipoInstruccion</title>
<ellipse fill="none" stroke="black" cx="2447" cy="-203" rx="135.057" ry="18.3848"/>
<text text-anchor="middle" x="2447" y="-199.4" font-family="Times Roman,serif" font-size="14.00">Proyecto::TipoInstruccion</text>
</g>
<!-- Proyecto::TipoInstruccion&#45;&gt;Proyecto::InstruccionDetalle -->
<g id="edge72" class="edge"><title>Proyecto::TipoInstruccion&#45;&gt;Proyecto::InstruccionDetalle</title>
<path fill="none" stroke="black" d="M2402.22,-180.481C2389.84,-171.192 2381.79,-159.834 2390,-148 2394.02,-142.207 2404.55,-136.558 2417.31,-131.489"/>
<ellipse fill="none" stroke="black" cx="2405.72" cy="-182.882" rx="4.00002" ry="4.00002"/>
<polygon fill="black" stroke="black" points="2417.57,-131.393 2428.51,-132.123 2422.26,-129.649 2426.94,-127.906 2426.94,-127.906 2426.94,-127.906 2422.26,-129.649 2425.37,-123.688 2417.57,-131.393 2417.57,-131.393"/>
<text text-anchor="middle" x="2458" y="-153.4" font-family="Times Roman,serif" font-size="14.00">instruccion_detalles</text>
</g>
<!-- Proyecto::Instruccion&#45;&gt;Proyecto::InstruccionDetalle -->
<g id="edge74" class="edge"><title>Proyecto::Instruccion&#45;&gt;Proyecto::InstruccionDetalle</title>
<path fill="none" stroke="black" d="M2782.97,-184.213C2803.95,-175.164 2818.34,-162.989 2805,-148 2793.14,-134.671 2712.76,-125.372 2636.05,-119.43"/>
<ellipse fill="none" stroke="black" cx="2779.02" cy="-185.795" rx="4.00001" ry="4.00001"/>
<polygon fill="black" stroke="black" points="2635.72,-119.405 2626.09,-114.162 2630.73,-119.027 2625.75,-118.65 2625.75,-118.65 2625.75,-118.65 2630.73,-119.027 2625.41,-123.137 2635.72,-119.405 2635.72,-119.405"/>
<text text-anchor="middle" x="2878" y="-153.4" font-family="Times Roman,serif" font-size="14.00">instruccion_detalles</text>
</g>
<!-- Proyecto::Instruccion&#45;&gt;Proyecto::InstruccionDetalle -->
<g id="edge76" class="edge"><title>Proyecto::Instruccion&#45;&gt;Proyecto::InstruccionDetalle</title>
<path fill="none" stroke="black" d="M2615.68,-189.734C2592.97,-184.315 2569.48,-176.698 2549,-166 2541.25,-161.954 2526.98,-148.973 2514.3,-136.638"/>
<ellipse fill="none" stroke="black" cx="2619.77" cy="-190.67" rx="4.00001" ry="4.00001"/>
<polygon fill="black" stroke="black" points="2514.2,-136.541 2510.24,-126.317 2510.64,-133.032 2507.08,-129.523 2507.08,-129.523 2507.08,-129.523 2510.64,-133.032 2503.92,-132.728 2514.2,-136.541 2514.2,-136.541"/>
<text text-anchor="middle" x="2602" y="-153.4" font-family="Times Roman,serif" font-size="14.00">tareas_revision</text>
</g>
<!-- Proyecto::Instruccion&#45;&gt;Proyecto::InstruccionDetalle -->
<g id="edge78" class="edge"><title>Proyecto::Instruccion&#45;&gt;Proyecto::InstruccionDetalle</title>
<path fill="none" stroke="black" d="M2687.84,-178.888C2683.22,-174.604 2678.46,-170.178 2674,-166 2665.51,-158.05 2665.27,-153.463 2655,-148 2638.24,-139.085 2619.43,-132.315 2600.65,-127.173"/>
<ellipse fill="none" stroke="black" cx="2691.08" cy="-181.886" rx="4.00002" ry="4.00002"/>
<polygon fill="black" stroke="black" points="2600.53,-127.141 2591.98,-120.275 2595.69,-125.886 2590.85,-124.631 2590.85,-124.631 2590.85,-124.631 2595.69,-125.886 2589.72,-128.986 2600.53,-127.141 2600.53,-127.141"/>
<text text-anchor="middle" x="2737.5" y="-153.4" font-family="Times Roman,serif" font-size="14.00">tareas_pendientes</text>
</g>
<!-- Proyecto::ProyectoItem&#45;&gt;Proyecto::ItemGasto -->
<g id="edge68" class="edge"><title>Proyecto::ProyectoItem&#45;&gt;Proyecto::ItemGasto</title>
<path fill="none" stroke="black" d="M2806.06,-277.261C2839.28,-260.918 2888.29,-236.804 2921.37,-220.528"/>
</g>
<!-- Proyecto::ProyectoItem&#45;&gt;Proyecto::ItemCobro -->
<g id="edge84" class="edge"><title>Proyecto::ProyectoItem&#45;&gt;Proyecto::ItemCobro</title>
<path fill="none" stroke="black" d="M2683.49,-281.529C2589.74,-266.919 2435.74,-242.884 2303,-222 2290.29,-220 2276.82,-217.875 2263.68,-215.797"/>
</g>
<!-- Proyecto::ItemCobro&#45;&gt;Proyecto::InstruccionDetalle -->
<g id="edge80" class="edge"><title>Proyecto::ItemCobro&#45;&gt;Proyecto::InstruccionDetalle</title>
<path fill="none" stroke="black" d="M2205.86,-177.365C2216.91,-166.584 2231.02,-154.951 2246,-148 2267.14,-138.191 2314.48,-130.017 2361.81,-123.868"/>
<polygon fill="black" stroke="black" points="2205.74,-177.493 2195.52,-181.471 2202.23,-181.059 2198.73,-184.625 2198.73,-184.625 2198.73,-184.625 2202.23,-181.059 2201.93,-187.78 2205.74,-177.493 2205.74,-177.493"/>
<polygon fill="black" stroke="black" points="2361.98,-123.846 2372.47,-127.05 2366.94,-123.216 2371.91,-122.586 2371.91,-122.586 2371.91,-122.586 2366.94,-123.216 2371.34,-118.122 2361.98,-123.846 2361.98,-123.846"/>
<text text-anchor="middle" x="2314" y="-153.4" font-family="Times Roman,serif" font-size="14.00">instruccion_detalles</text>
</g>
<!-- Proyecto::Marca -->
<g id="node86" class="node"><title>Proyecto::Marca</title>
<ellipse fill="none" stroke="black" cx="2172" cy="-111" rx="90.0096" ry="18.3848"/>
<text text-anchor="middle" x="2172" y="-107.4" font-family="Times Roman,serif" font-size="14.00">Proyecto::Marca</text>
</g>
<!-- Proyecto::ItemCobro&#45;&gt;Proyecto::Marca -->
<g id="edge82" class="edge"><title>Proyecto::ItemCobro&#45;&gt;Proyecto::Marca</title>
<path fill="none" stroke="black" d="M2179.57,-174.342C2178.25,-163.283 2176.74,-150.657 2175.42,-139.604"/>
<polygon fill="black" stroke="black" points="2179.59,-174.453 2176.31,-184.917 2180.18,-179.418 2180.77,-184.382 2180.77,-184.382 2180.77,-184.382 2180.18,-179.418 2185.24,-183.848 2179.59,-174.453 2179.59,-174.453"/>
<polygon fill="black" stroke="black" points="2175.41,-139.519 2178.69,-129.056 2174.82,-134.555 2174.22,-129.59 2174.22,-129.59 2174.22,-129.59 2174.82,-134.555 2169.75,-130.124 2175.41,-139.519 2175.41,-139.519"/>
</g>
<!-- Consulta -->
<g id="node28" class="node"><title>Consulta</title>
<ellipse fill="none" stroke="black" cx="1734" cy="-295" rx="53.9477" ry="18.3848"/>
<text text-anchor="middle" x="1734" y="-291.4" font-family="Times Roman,serif" font-size="14.00">Consulta</text>
</g>
<!-- ConsultaDetalle -->
<g id="node34" class="node"><title>ConsultaDetalle</title>
<ellipse fill="none" stroke="black" cx="1273" cy="-203" rx="89.8026" ry="18.3848"/>
<text text-anchor="middle" x="1273" y="-199.4" font-family="Times Roman,serif" font-size="14.00">ConsultaDetalle</text>
</g>
<!-- Consulta&#45;&gt;ConsultaDetalle -->
<g id="edge86" class="edge"><title>Consulta&#45;&gt;ConsultaDetalle</title>
<path fill="none" stroke="black" d="M1686.81,-280.147C1681.5,-278.661 1676.15,-277.244 1671,-276 1563.28,-249.964 1437.19,-228.295 1356.27,-215.499"/>
<ellipse fill="none" stroke="black" cx="1690.68" cy="-281.259" rx="4.00001" ry="4.00001"/>
<polygon fill="black" stroke="black" points="1356.02,-215.459 1346.84,-209.46 1351.08,-214.682 1346.14,-213.906 1346.14,-213.906 1346.14,-213.906 1351.08,-214.682 1345.44,-218.351 1356.02,-215.459 1356.02,-215.459"/>
<text text-anchor="middle" x="1643.5" y="-245.4" font-family="Times Roman,serif" font-size="14.00">consulta_detalles</text>
</g>
<!-- Clase -->
<g id="node29" class="node"><title>Clase</title>
<ellipse fill="none" stroke="black" cx="725" cy="-387" rx="36.977" ry="18.3848"/>
<text text-anchor="middle" x="725" y="-383.4" font-family="Times Roman,serif" font-size="14.00">Clase</text>
</g>
<!-- Clase&#45;&gt;Marca -->
<g id="edge88" class="edge"><title>Clase&#45;&gt;Marca</title>
<path fill="none" stroke="black" d="M760.57,-371.74C764.07,-370.41 767.589,-369.139 771,-368 862,-337.614 887.216,-338.401 980,-314 988.338,-311.807 997.22,-309.449 1005.78,-307.164"/>
<ellipse fill="none" stroke="black" cx="756.709" cy="-373.256" rx="4.00001" ry="4.00001"/>
<polygon fill="black" stroke="black" points="1005.96,-307.115 1016.79,-308.878 1010.79,-305.823 1015.62,-304.531 1015.62,-304.531 1015.62,-304.531 1010.79,-305.823 1014.46,-300.184 1005.96,-307.115 1005.96,-307.115"/>
</g>
<!-- Post&#45;&gt;Adjunto -->
<g id="edge92" class="edge"><title>Post&#45;&gt;Adjunto</title>
<path fill="none" stroke="black" d="M1324.9,-86.0717C1332.3,-73.6903 1341.26,-58.7107 1348.83,-46.0514"/>
<ellipse fill="none" stroke="black" cx="1322.66" cy="-89.8282" rx="4.00002" ry="4.00002"/>
<polygon fill="black" stroke="black" points="1348.92,-45.8969 1357.91,-39.6228 1351.49,-41.6054 1354.05,-37.3138 1354.05,-37.3138 1354.05,-37.3138 1351.49,-41.6054 1350.19,-35.0047 1348.92,-45.8969 1348.92,-45.8969"/>
</g>
<!-- VistaMarca -->
<g id="node32" class="node"><title>VistaMarca</title>
<ellipse fill="none" stroke="black" cx="3825" cy="-491" rx="65.0538" ry="18.3848"/>
<text text-anchor="middle" x="3825" y="-487.4" font-family="Times Roman,serif" font-size="14.00">VistaMarca</text>
</g>
<!-- Marca&#45;&gt;Adjunto -->
<g id="edge96" class="edge"><title>Marca&#45;&gt;Adjunto</title>
<path fill="none" stroke="black" d="M1099.53,-290.54C1198.87,-281.355 1416.34,-260.938 1419,-258 1473.67,-197.561 1416.27,-93.7357 1383.92,-45.307"/>
<ellipse fill="none" stroke="black" cx="1095.42" cy="-290.919" rx="4" ry="4"/>
<polygon fill="black" stroke="black" points="1383.85,-45.1915 1381.93,-34.3951 1381.03,-41.0617 1378.21,-36.9319 1378.21,-36.9319 1378.21,-36.9319 1381.03,-41.0617 1374.49,-39.4687 1383.85,-45.1915 1383.85,-45.1915"/>
</g>
<!-- Marca&#45;&gt;Representante -->
<g id="edge106" class="edge"><title>Marca&#45;&gt;Representante</title>
<path fill="none" stroke="black" d="M1004.84,-282.765C992.745,-277.235 981.11,-269.305 974,-258 968.956,-249.98 969.453,-240.148 972.017,-231.026"/>
<polygon fill="black" stroke="black" points="1004.85,-282.77 1012.42,-290.71 1009.49,-284.657 1014.12,-286.543 1014.12,-286.543 1014.12,-286.543 1009.49,-284.657 1015.81,-282.375 1004.85,-282.77 1004.85,-282.77"/>
<polygon fill="black" stroke="black" points="972.051,-230.931 979.68,-223.053 973.749,-226.228 975.447,-221.525 975.447,-221.525 975.447,-221.525 973.749,-226.228 971.214,-219.997 972.051,-230.931 972.051,-230.931"/>
<text text-anchor="middle" x="1001.5" y="-245.4" font-family="Times Roman,serif" font-size="14.00">agentes</text>
</g>
<!-- Marca&#45;&gt;Representante -->
<g id="edge108" class="edge"><title>Marca&#45;&gt;Representante</title>
<path fill="none" stroke="black" d="M1042.79,-267.081C1039.36,-257.966 1034.8,-248.112 1029,-240 1025.93,-235.703 1022.26,-231.582 1018.37,-227.753"/>
<polygon fill="black" stroke="black" points="1042.8,-267.114 1041.82,-278.036 1044.43,-271.838 1046.07,-276.563 1046.07,-276.563 1046.07,-276.563 1044.43,-271.838 1050.32,-275.091 1042.8,-267.114 1042.8,-267.114"/>
<polygon fill="black" stroke="black" points="1018.12,-227.524 1013.78,-217.457 1014.43,-224.151 1010.74,-220.779 1010.74,-220.779 1010.74,-220.779 1014.43,-224.151 1007.71,-224.101 1018.12,-227.524 1018.12,-227.524"/>
<text text-anchor="middle" x="1067" y="-245.4" font-family="Times Roman,serif" font-size="14.00">titulares</text>
</g>
<!-- Marca&#45;&gt;Proyecto::ItemCobro -->
<g id="edge104" class="edge"><title>Marca&#45;&gt;Proyecto::ItemCobro</title>
<path fill="none" stroke="black" d="M1101.78,-290.873C1273.27,-276.935 1833.62,-231.395 2072.99,-211.941"/>
<polygon fill="black" stroke="black" points="1101.59,-290.888 1091.26,-287.213 1096.61,-291.293 1091.62,-291.699 1091.62,-291.699 1091.62,-291.699 1096.61,-291.293 1091.99,-296.184 1101.59,-290.888 1101.59,-290.888"/>
<polygon fill="black" stroke="black" points="2073.13,-211.929 2083.47,-215.604 2078.12,-211.524 2083.1,-211.119 2083.1,-211.119 2083.1,-211.119 2078.12,-211.524 2082.74,-206.634 2073.13,-211.929 2073.13,-211.929"/>
<text text-anchor="middle" x="1759.5" y="-245.4" font-family="Times Roman,serif" font-size="14.00">item_cobros</text>
</g>
<!-- Marca&#45;&gt;Post -->
<g id="edge94" class="edge"><title>Marca&#45;&gt;Post</title>
<path fill="none" stroke="black" d="M1080.03,-274.128C1086.73,-269.025 1093.73,-263.458 1100,-258 1135.09,-227.468 1136.67,-211.74 1174,-184 1205.89,-160.308 1246.45,-139.576 1274.95,-126.32"/>
<ellipse fill="none" stroke="black" cx="1076.66" cy="-276.653" rx="4.00002" ry="4.00002"/>
<polygon fill="black" stroke="black" points="1275.03,-126.284 1285.99,-126.209 1279.57,-124.201 1284.12,-122.118 1284.12,-122.118 1284.12,-122.118 1279.57,-124.201 1282.24,-118.027 1275.03,-126.284 1275.03,-126.284"/>
</g>
<!-- Marca&#45;&gt;ConsultaDetalle -->
<g id="edge100" class="edge"><title>Marca&#45;&gt;ConsultaDetalle</title>
<path fill="none" stroke="black" d="M1090.8,-279.871C1105.12,-273.808 1121.16,-266.288 1135,-258 1146.14,-251.332 1146.53,-246.082 1158,-240 1172.73,-232.187 1189.4,-225.659 1205.39,-220.37"/>
<ellipse fill="none" stroke="black" cx="1086.74" cy="-281.554" rx="4.00001" ry="4.00001"/>
<polygon fill="black" stroke="black" points="1205.7,-220.271 1216.6,-221.525 1210.47,-218.754 1215.23,-217.237 1215.23,-217.237 1215.23,-217.237 1210.47,-218.754 1213.87,-212.949 1205.7,-220.271 1205.7,-220.271"/>
<text text-anchor="middle" x="1217.5" y="-245.4" font-family="Times Roman,serif" font-size="14.00">consulta_detalles</text>
</g>
<!-- Marca&#45;&gt;Marca -->
<g id="edge102" class="edge"><title>Marca&#45;&gt;Marca</title>
<path fill="none" stroke="black" d="M1095.37,-303.228C1103.93,-302.26 1110,-299.517 1110,-295 1110,-290.894 1104.99,-288.254 1097.64,-287.08"/>
<ellipse fill="none" stroke="black" cx="1091.29" cy="-303.428" rx="4" ry="4"/>
<polygon fill="black" stroke="black" points="1097.27,-287.055 1087.6,-281.887 1092.29,-286.716 1087.3,-286.377 1087.3,-286.377 1087.3,-286.377 1092.29,-286.716 1086.99,-290.867 1097.27,-287.055 1097.27,-287.055"/>
<text text-anchor="middle" x="1173.5" y="-291.4" font-family="Times Roman,serif" font-size="14.00">lemas_comerciales</text>
</g>
<!-- Marca&#45;&gt;Consultum -->
<g id="edge98" class="edge"><title>Marca&#45;&gt;Consultum</title>
<path fill="none" stroke="black" d="M1008.79,-282.701C999.373,-280.237 989.391,-277.843 980,-276 948.787,-269.875 864.074,-276.218 838,-258 797.662,-229.815 777.28,-173.541 768.208,-139.381"/>
<ellipse fill="none" stroke="black" cx="1012.69" cy="-283.742" rx="4.00001" ry="4.00001"/>
<polygon fill="black" stroke="black" points="768.174,-139.246 770.111,-128.453 766.96,-134.396 765.746,-129.546 765.746,-129.546 765.746,-129.546 766.96,-134.396 761.381,-130.639 768.174,-139.246 768.174,-139.246"/>
<text text-anchor="middle" x="834.5" y="-199.4" font-family="Times Roman,serif" font-size="14.00">consultas</text>
</g>
<!-- Contacto&#45;&gt;Proyecto -->
<g id="edge110" class="edge"><title>Contacto&#45;&gt;Proyecto</title>
<path fill="none" stroke="black" d="M1135.76,-84.3597C1127.4,-72.1617 1117.53,-57.7423 1109.18,-45.5547"/>
<polygon fill="black" stroke="black" points="1135.9,-84.5729 1137.84,-95.3663 1138.73,-88.6983 1141.55,-92.8238 1141.55,-92.8238 1141.55,-92.8238 1138.73,-88.6983 1145.27,-90.2812 1135.9,-84.5729 1135.9,-84.5729"/>
<polygon fill="black" stroke="black" points="1109.07,-45.3894 1107.13,-34.5959 1106.25,-41.2639 1103.42,-37.1385 1103.42,-37.1385 1103.42,-37.1385 1106.25,-41.2639 1099.71,-39.681 1109.07,-45.3894 1109.07,-45.3894"/>
</g>
</g>
</svg>
