<?xml version="1.0" encoding="UTF-8" standalone="no"?>
<!DOCTYPE svg PUBLIC "-//W3C//DTD SVG 1.1//EN"
 "http://www.w3.org/Graphics/SVG/1.1/DTD/svg11.dtd">
<!-- Generated by graphviz version 2.26.3 (20100126.1600)
 -->
<!-- Title: models_diagram Pages: 1 -->
<svg width="3296pt" height="546pt"
 viewBox="0.00 0.00 3296.00 546.00" xmlns="http://www.w3.org/2000/svg" xmlns:xlink="http://www.w3.org/1999/xlink">
<g id="graph1" class="graph" transform="scale(1 1) rotate(0) translate(4 542)">
<title>models_diagram</title>
<polygon fill="white" stroke="white" points="-4,5 -4,-542 3293,-542 3293,5 -4,5"/>
<!-- _diagram_info -->
<g id="node1" class="node"><title>_diagram_info</title>
<text text-anchor="start" x="8" y="-521.8" font-family="Times Roman,serif" font-size="13.00">Models diagram</text>
<text text-anchor="start" x="8" y="-504.8" font-family="Times Roman,serif" font-size="13.00">Date: May 10 2011 &#45; 11:17</text>
<text text-anchor="start" x="8" y="-487.8" font-family="Times Roman,serif" font-size="13.00">Migration version: 201104258152130</text>
<text text-anchor="start" x="8" y="-470.8" font-family="Times Roman,serif" font-size="13.00">Generated by RailRoady 1.0.2</text>
<text text-anchor="start" x="8" y="-453.8" font-family="Times Roman,serif" font-size="13.00">http://railroady.prestonlee.com</text>
</g>
<!-- Tableless -->
<g id="node2" class="node"><title>Tableless</title>
<ellipse fill="none" stroke="black" cx="330" cy="-491" rx="53.9477" ry="18.3848"/>
<text text-anchor="middle" x="330" y="-487.4" font-family="Times Roman,serif" font-size="14.00">Tableless</text>
</g>
<!-- ImportacionVacia -->
<g id="node5" class="node"><title>ImportacionVacia</title>
<ellipse fill="none" stroke="black" cx="231" cy="-387" rx="94.7523" ry="18.3848"/>
<text text-anchor="middle" x="231" y="-383.4" font-family="Times Roman,serif" font-size="14.00">ImportacionVacia</text>
</g>
<!-- Tableless&#45;&gt;ImportacionVacia -->
<g id="edge6" class="edge"><title>Tableless&#45;&gt;ImportacionVacia</title>
<path fill="none" stroke="black" d="M313.206,-473.358C295.222,-454.465 266.812,-424.621 248.544,-405.43"/>
</g>
<!-- BusquedaVacia -->
<g id="node9" class="node"><title>BusquedaVacia</title>
<ellipse fill="none" stroke="black" cx="429" cy="-387" rx="84.8528" ry="18.3848"/>
<text text-anchor="middle" x="429" y="-383.4" font-family="Times Roman,serif" font-size="14.00">BusquedaVacia</text>
</g>
<!-- Tableless&#45;&gt;BusquedaVacia -->
<g id="edge24" class="edge"><title>Tableless&#45;&gt;BusquedaVacia</title>
<path fill="none" stroke="black" d="M346.794,-473.358C364.778,-454.465 393.188,-424.621 411.456,-405.43"/>
</g>
<!-- Pais -->
<g id="node3" class="node"><title>Pais</title>
<ellipse fill="none" stroke="black" cx="956" cy="-295" rx="31.1127" ry="18.3848"/>
<text text-anchor="middle" x="956" y="-291.4" font-family="Times Roman,serif" font-size="14.00">Pais</text>
</g>
<!-- Representante -->
<g id="node16" class="node"><title>Representante</title>
<ellipse fill="none" stroke="black" cx="992" cy="-203" rx="82.939" ry="18.3848"/>
<text text-anchor="middle" x="992" y="-199.4" font-family="Times Roman,serif" font-size="14.00">Representante</text>
</g>
<!-- Pais&#45;&gt;Representante -->
<g id="edge2" class="edge"><title>Pais&#45;&gt;Representante</title>
<path fill="none" stroke="black" d="M961.14,-268.417C963.34,-259.23 966.275,-248.99 970,-240 971.287,-236.893 972.802,-233.735 974.424,-230.64"/>
<ellipse fill="none" stroke="black" cx="960.203" cy="-272.589" rx="4.00001" ry="4.00001"/>
<polygon fill="black" stroke="black" points="974.578,-230.367 983.412,-223.87 977.036,-226.013 979.493,-221.658 979.493,-221.658 979.493,-221.658 977.036,-226.013 975.574,-219.446 974.578,-230.367 974.578,-230.367"/>
</g>
<!-- ReporteMarca -->
<g id="node4" class="node"><title>ReporteMarca</title>
<ellipse fill="none" stroke="black" cx="596" cy="-111" rx="79.196" ry="18.3848"/>
<text text-anchor="middle" x="596" y="-107.4" font-family="Times Roman,serif" font-size="14.00">ReporteMarca</text>
</g>
<!-- ReporteMarcaDetalle -->
<g id="node33" class="node"><title>ReporteMarcaDetalle</title>
<ellipse fill="none" stroke="black" cx="596" cy="-19" rx="113.844" ry="18.3848"/>
<text text-anchor="middle" x="596" y="-15.4" font-family="Times Roman,serif" font-size="14.00">ReporteMarcaDetalle</text>
</g>
<!-- ReporteMarca&#45;&gt;ReporteMarcaDetalle -->
<g id="edge4" class="edge"><title>ReporteMarca&#45;&gt;ReporteMarcaDetalle</title>
<path fill="none" stroke="black" d="M596,-84.029C596,-72.5994 596,-59.2671 596,-47.6601"/>
<ellipse fill="none" stroke="black" cx="596" cy="-88.3824" rx="4" ry="4"/>
<polygon fill="black" stroke="black" points="596,-47.5899 600.5,-37.5898 596,-42.5899 596,-37.5899 596,-37.5899 596,-37.5899 596,-42.5899 591.5,-37.5899 596,-47.5899 596,-47.5899"/>
<text text-anchor="middle" x="677" y="-61.4" font-family="Times Roman,serif" font-size="14.00">reporte_marca_detalles</text>
</g>
<!-- Importacion -->
<g id="node6" class="node"><title>Importacion</title>
<ellipse fill="none" stroke="black" cx="601" cy="-387" rx="68.7979" ry="18.3848"/>
<text text-anchor="middle" x="601" y="-383.4" font-family="Times Roman,serif" font-size="14.00">Importacion</text>
</g>
<!-- Importacion&#45;&gt;ReporteMarca -->
<g id="edge12" class="edge"><title>Importacion&#45;&gt;ReporteMarca</title>
<path fill="none" stroke="black" d="M600.514,-360.164C599.571,-308.101 597.5,-193.79 596.526,-140.029"/>
<ellipse fill="none" stroke="black" cx="600.592" cy="-364.463" rx="4" ry="4"/>
<polygon fill="black" stroke="black" points="596.522,-139.819 600.84,-129.739 596.432,-134.82 596.341,-129.82 596.341,-129.82 596.341,-129.82 596.432,-134.82 591.842,-129.902 596.522,-139.819 596.522,-139.819"/>
</g>
<!-- Marca -->
<g id="node35" class="node"><title>Marca</title>
<ellipse fill="none" stroke="black" cx="1058" cy="-295" rx="41.0122" ry="18.3848"/>
<text text-anchor="middle" x="1058" y="-291.4" font-family="Times Roman,serif" font-size="14.00">Marca</text>
</g>
<!-- Importacion&#45;&gt;Marca -->
<g id="edge8" class="edge"><title>Importacion&#45;&gt;Marca</title>
<path fill="none" stroke="black" d="M659.083,-372.464C665.786,-370.901 672.534,-369.38 679,-368 765.617,-349.512 787.63,-346.518 875,-332 928.634,-323.088 942.971,-325.999 996,-314 1002.27,-312.581 1008.83,-310.851 1015.23,-309.017"/>
<ellipse fill="none" stroke="black" cx="655.147" cy="-373.392" rx="4.00001" ry="4.00001"/>
<polygon fill="black" stroke="black" points="1015.52,-308.931 1026.39,-310.396 1020.31,-307.507 1025.1,-306.082 1025.1,-306.082 1025.1,-306.082 1020.31,-307.507 1023.82,-301.769 1015.52,-308.931 1015.52,-308.931"/>
</g>
<!-- Consultum -->
<g id="node42" class="node"><title>Consultum</title>
<ellipse fill="none" stroke="black" cx="757" cy="-111" rx="63.8479" ry="18.3848"/>
<text text-anchor="middle" x="757" y="-107.4" font-family="Times Roman,serif" font-size="14.00">Consultum</text>
</g>
<!-- Importacion&#45;&gt;Consultum -->
<g id="edge10" class="edge"><title>Importacion&#45;&gt;Consultum</title>
<path fill="none" stroke="black" d="M615.601,-361.168C645.062,-309.044 711.38,-191.712 741.542,-138.349"/>
<ellipse fill="none" stroke="black" cx="613.446" cy="-364.98" rx="4.00002" ry="4.00002"/>
<polygon fill="black" stroke="black" points="741.647,-138.163 750.485,-131.671 744.107,-133.81 746.568,-129.457 746.568,-129.457 746.568,-129.457 744.107,-133.81 742.65,-127.243 741.647,-138.163 741.647,-138.163"/>
<text text-anchor="middle" x="714.5" y="-245.4" font-family="Times Roman,serif" font-size="14.00">consultas</text>
</g>
<!-- Adjunto -->
<g id="node7" class="node"><title>Adjunto</title>
<ellipse fill="none" stroke="black" cx="1285" cy="-19" rx="50.2046" ry="18.3848"/>
<text text-anchor="middle" x="1285" y="-15.4" font-family="Times Roman,serif" font-size="14.00">Adjunto</text>
</g>
<!-- Usuario -->
<g id="node8" class="node"><title>Usuario</title>
<ellipse fill="none" stroke="black" cx="1272" cy="-387" rx="48.7904" ry="18.3848"/>
<text text-anchor="middle" x="1272" y="-383.4" font-family="Times Roman,serif" font-size="14.00">Usuario</text>
</g>
<!-- Post -->
<g id="node31" class="node"><title>Post</title>
<ellipse fill="none" stroke="black" cx="1255" cy="-111" rx="32.0265" ry="18.3848"/>
<text text-anchor="middle" x="1255" y="-107.4" font-family="Times Roman,serif" font-size="14.00">Post</text>
</g>
<!-- Usuario&#45;&gt;Post -->
<g id="edge16" class="edge"><title>Usuario&#45;&gt;Post</title>
<path fill="none" stroke="black" d="M1268.32,-360.009C1266.51,-334.526 1268.46,-297.156 1291,-276 1347,-223.446 1484.7,-312.717 1460,-240 1436.12,-169.677 1347.61,-134.986 1295.02,-120.234"/>
<ellipse fill="none" stroke="black" cx="1268.7" cy="-364.17" rx="4" ry="4"/>
<polygon fill="black" stroke="black" points="1294.98,-120.224 1286.5,-113.28 1290.16,-118.925 1285.33,-117.625 1285.33,-117.625 1285.33,-117.625 1290.16,-118.925 1284.16,-121.971 1294.98,-120.224 1294.98,-120.224"/>
</g>
<!-- Usuario&#45;&gt;Marca -->
<g id="edge14" class="edge"><title>Usuario&#45;&gt;Marca</title>
<path fill="none" stroke="black" d="M1231.95,-369.783C1193.32,-353.177 1135.24,-328.204 1096.97,-311.755"/>
<ellipse fill="none" stroke="black" cx="1235.82" cy="-371.447" rx="4.00002" ry="4.00002"/>
<polygon fill="black" stroke="black" points="1096.88,-311.717 1089.48,-303.633 1092.29,-309.742 1087.7,-307.767 1087.7,-307.767 1087.7,-307.767 1092.29,-309.742 1085.92,-311.901 1096.88,-311.717 1096.88,-311.717"/>
</g>
<!-- Usuario&#45;&gt;Consultum -->
<g id="edge18" class="edge"><title>Usuario&#45;&gt;Consultum</title>
<path fill="none" stroke="black" d="M1227.74,-372.294C1222.46,-370.746 1217.13,-369.275 1212,-368 1082.22,-335.75 1024.63,-391.996 916,-314 862.35,-275.478 886.003,-234.971 844,-184 828.483,-165.17 807.638,-147.487 790.242,-134.241"/>
<ellipse fill="none" stroke="black" cx="1231.57" cy="-373.449" rx="4.00001" ry="4.00001"/>
<polygon fill="black" stroke="black" points="790.035,-134.087 784.708,-124.502 786.027,-131.098 782.018,-128.11 782.018,-128.11 782.018,-128.11 786.027,-131.098 779.329,-131.718 790.035,-134.087 790.035,-134.087"/>
<text text-anchor="middle" x="908.5" y="-245.4" font-family="Times Roman,serif" font-size="14.00">consultas</text>
</g>
<!-- Importacione -->
<g id="node48" class="node"><title>Importacione</title>
<ellipse fill="none" stroke="black" cx="1375" cy="-295" rx="75.1594" ry="18.3848"/>
<text text-anchor="middle" x="1375" y="-291.4" font-family="Times Roman,serif" font-size="14.00">Importacione</text>
</g>
<!-- Usuario&#45;&gt;Importacione -->
<g id="edge20" class="edge"><title>Usuario&#45;&gt;Importacione</title>
<path fill="none" stroke="black" d="M1297.64,-364.102C1312.74,-350.61 1331.86,-333.536 1347.31,-319.736"/>
<ellipse fill="none" stroke="black" cx="1294.36" cy="-367.031" rx="4.00002" ry="4.00002"/>
<polygon fill="black" stroke="black" points="1347.55,-319.516 1358.01,-316.211 1351.28,-316.185 1355.01,-312.854 1355.01,-312.854 1355.01,-312.854 1351.28,-316.185 1352.01,-309.498 1347.55,-319.516 1347.55,-319.516"/>
<text text-anchor="middle" x="1380.5" y="-337.4" font-family="Times Roman,serif" font-size="14.00">importaciones</text>
</g>
<!-- InstruccionDetalle -->
<g id="node50" class="node"><title>InstruccionDetalle</title>
<ellipse fill="none" stroke="black" cx="1568" cy="-295" rx="99.9096" ry="18.3848"/>
<text text-anchor="middle" x="1568" y="-291.4" font-family="Times Roman,serif" font-size="14.00">InstruccionDetalle</text>
</g>
<!-- Usuario&#45;&gt;InstruccionDetalle -->
<g id="edge22" class="edge"><title>Usuario&#45;&gt;InstruccionDetalle</title>
<path fill="none" stroke="black" d="M1324.12,-377.241C1355.92,-370.741 1397.2,-361.324 1433,-350 1462.85,-340.558 1495.37,-327.399 1521.01,-316.32"/>
<ellipse fill="none" stroke="black" cx="1320.17" cy="-378.039" rx="4.00001" ry="4.00001"/>
<polygon fill="black" stroke="black" points="1521.32,-316.187 1532.28,-316.313 1525.9,-314.188 1530.49,-312.188 1530.49,-312.188 1530.49,-312.188 1525.9,-314.188 1528.69,-308.064 1521.32,-316.187 1521.32,-316.187"/>
<text text-anchor="middle" x="1550" y="-337.4" font-family="Times Roman,serif" font-size="14.00">instruccion_detalles</text>
</g>
<!-- Busqueda -->
<g id="node10" class="node"><title>Busqueda</title>
<polygon fill="none" stroke="black" points="2884,-509 2800,-509 2800,-473 2884,-473 2884,-509"/>
<text text-anchor="middle" x="2842" y="-487.4" font-family="Times Roman,serif" font-size="14.00">Busqueda</text>
</g>
<!-- UsuarioSession -->
<g id="node11" class="node"><title>UsuarioSession</title>
<polygon fill="none" stroke="black" points="3022,-509 2902,-509 2902,-473 3022,-473 3022,-509"/>
<text text-anchor="middle" x="2962" y="-487.4" font-family="Times Roman,serif" font-size="14.00">UsuarioSession</text>
</g>
<!-- Agente -->
<g id="node12" class="node"><title>Agente</title>
<ellipse fill="none" stroke="black" cx="885" cy="-111" rx="46.1672" ry="18.3848"/>
<text text-anchor="middle" x="885" y="-107.4" font-family="Times Roman,serif" font-size="14.00">Agente</text>
</g>
<!-- MarcaEstado -->
<g id="node13" class="node"><title>MarcaEstado</title>
<ellipse fill="none" stroke="black" cx="1130" cy="-387" rx="73.0388" ry="18.3848"/>
<text text-anchor="middle" x="1130" y="-383.4" font-family="Times Roman,serif" font-size="14.00">MarcaEstado</text>
</g>
<!-- MarcaEstado&#45;&gt;Marca -->
<g id="edge28" class="edge"><title>MarcaEstado&#45;&gt;Marca</title>
<path fill="none" stroke="black" d="M1110.73,-362.375C1100.63,-349.472 1088.27,-333.684 1078.06,-320.636"/>
<ellipse fill="none" stroke="black" cx="1113.31" cy="-365.674" rx="4.00002" ry="4.00002"/>
<polygon fill="black" stroke="black" points="1077.87,-320.389 1075.25,-309.741 1074.79,-316.452 1071.71,-312.514 1071.71,-312.514 1071.71,-312.514 1074.79,-316.452 1068.16,-315.288 1077.87,-320.389 1077.87,-320.389"/>
</g>
<!-- TipoSigno -->
<g id="node14" class="node"><title>TipoSigno</title>
<ellipse fill="none" stroke="black" cx="746" cy="-387" rx="58.1882" ry="18.3848"/>
<text text-anchor="middle" x="746" y="-383.4" font-family="Times Roman,serif" font-size="14.00">TipoSigno</text>
</g>
<!-- TipoSigno&#45;&gt;Marca -->
<g id="edge30" class="edge"><title>TipoSigno&#45;&gt;Marca</title>
<path fill="none" stroke="black" d="M797.272,-372.244C847.848,-357.637 927.333,-334.546 996,-314 1001.8,-312.263 1007.91,-310.417 1013.93,-308.585"/>
<ellipse fill="none" stroke="black" cx="793.252" cy="-373.404" rx="4.00001" ry="4.00001"/>
<polygon fill="black" stroke="black" points="1014.35,-308.456 1025.23,-309.838 1019.13,-306.995 1023.91,-305.534 1023.91,-305.534 1023.91,-305.534 1019.13,-306.995 1022.6,-301.231 1014.35,-308.456 1014.35,-308.456"/>
</g>
<!-- Reporte -->
<g id="node15" class="node"><title>Reporte</title>
<ellipse fill="none" stroke="black" cx="3090" cy="-491" rx="50.2046" ry="18.3848"/>
<text text-anchor="middle" x="3090" y="-487.4" font-family="Times Roman,serif" font-size="14.00">Reporte</text>
</g>
<!-- Representante&#45;&gt;ReporteMarca -->
<g id="edge34" class="edge"><title>Representante&#45;&gt;ReporteMarca</title>
<path fill="none" stroke="black" d="M926.251,-187.725C853.162,-170.745 735.777,-143.474 662.419,-126.431"/>
<ellipse fill="none" stroke="black" cx="930.522" cy="-188.717" rx="4.00001" ry="4.00001"/>
<polygon fill="black" stroke="black" points="662.11,-126.359 653.387,-119.713 657.239,-125.227 652.369,-124.096 652.369,-124.096 652.369,-124.096 657.239,-125.227 651.351,-128.479 662.11,-126.359 662.11,-126.359"/>
</g>
<!-- Representante&#45;&gt;Agente -->
<g id="edge26" class="edge"><title>Representante&#45;&gt;Agente</title>
<path fill="none" stroke="black" d="M982.237,-184.492C975.465,-172.946 965.597,-158.362 954,-148 943.256,-138.4 929.579,-130.407 917.241,-124.335"/>
</g>
<!-- Titular -->
<g id="node30" class="node"><title>Titular</title>
<ellipse fill="none" stroke="black" cx="993" cy="-111" rx="43.8406" ry="18.3848"/>
<text text-anchor="middle" x="993" y="-107.4" font-family="Times Roman,serif" font-size="14.00">Titular</text>
</g>
<!-- Representante&#45;&gt;Titular -->
<g id="edge92" class="edge"><title>Representante&#45;&gt;Titular</title>
<path fill="none" stroke="black" d="M992.202,-184.382C992.376,-168.421 992.625,-145.543 992.798,-129.59"/>
</g>
<!-- Representante&#45;&gt;Post -->
<g id="edge32" class="edge"><title>Representante&#45;&gt;Post</title>
<path fill="none" stroke="black" d="M1076.16,-193.981C1108.89,-188.509 1146.1,-179.799 1178,-166 1183.44,-163.646 1207.24,-146.454 1226.95,-131.909"/>
<ellipse fill="none" stroke="black" cx="1071.9" cy="-194.668" rx="4.00001" ry="4.00001"/>
<polygon fill="black" stroke="black" points="1227.05,-131.837 1237.76,-129.505 1231.07,-128.863 1235.09,-125.888 1235.09,-125.888 1235.09,-125.888 1231.07,-128.863 1232.41,-122.271 1227.05,-131.837 1227.05,-131.837"/>
</g>
<!-- Contacto -->
<g id="node36" class="node"><title>Contacto</title>
<ellipse fill="none" stroke="black" cx="1111" cy="-111" rx="55.8614" ry="18.3848"/>
<text text-anchor="middle" x="1111" y="-107.4" font-family="Times Roman,serif" font-size="14.00">Contacto</text>
</g>
<!-- Representante&#45;&gt;Contacto -->
<g id="edge36" class="edge"><title>Representante&#45;&gt;Contacto</title>
<path fill="none" stroke="black" d="M1021.72,-180.027C1039.71,-166.117 1062.6,-148.421 1080.69,-134.43"/>
<ellipse fill="none" stroke="black" cx="1018.39" cy="-182.597" rx="4.00002" ry="4.00002"/>
<polygon fill="black" stroke="black" points="1080.73,-134.405 1091.39,-131.849 1084.68,-131.347 1088.64,-128.288 1088.64,-128.288 1088.64,-128.288 1084.68,-131.347 1085.89,-124.728 1080.73,-134.405 1080.73,-134.405"/>
</g>
<!-- Representante&#45;&gt;Consultum -->
<g id="edge38" class="edge"><title>Representante&#45;&gt;Consultum</title>
<path fill="none" stroke="black" d="M929.379,-186.332C914.279,-180.984 898.592,-174.252 885,-166 875.057,-159.963 875.96,-154.009 866,-148 850.766,-138.81 832.945,-131.537 816.179,-125.959"/>
<ellipse fill="none" stroke="black" cx="933.423" cy="-187.711" rx="4.00001" ry="4.00001"/>
<polygon fill="black" stroke="black" points="815.987,-125.898 807.82,-118.581 811.222,-124.384 806.457,-122.87 806.457,-122.87 806.457,-122.87 811.222,-124.384 805.094,-127.158 815.987,-125.898 815.987,-125.898"/>
<text text-anchor="middle" x="917.5" y="-153.4" font-family="Times Roman,serif" font-size="14.00">consultas</text>
</g>
<!-- Proyecto -->
<g id="node60" class="node"><title>Proyecto</title>
<ellipse fill="none" stroke="black" cx="1150" cy="-19" rx="53.9477" ry="18.3848"/>
<text text-anchor="middle" x="1150" y="-15.4" font-family="Times Roman,serif" font-size="14.00">Proyecto</text>
</g>
<!-- Representante&#45;&gt;Proyecto -->
<g id="edge40" class="edge"><title>Representante&#45;&gt;Proyecto</title>
<path fill="none" stroke="black" d="M1072.59,-192.073C1110.65,-182.42 1152.75,-164.24 1176,-130 1193.08,-104.848 1180.3,-69.9156 1167.35,-45.9955"/>
<ellipse fill="none" stroke="black" cx="1068.42" cy="-193.073" rx="4.00001" ry="4.00001"/>
<polygon fill="black" stroke="black" points="1167.22,-45.7764 1166.15,-34.8628 1164.74,-41.4385 1162.25,-37.1006 1162.25,-37.1006 1162.25,-37.1006 1164.74,-41.4385 1158.34,-39.3385 1167.22,-45.7764 1167.22,-45.7764"/>
</g>
<!-- TipoMarca -->
<g id="node17" class="node"><title>TipoMarca</title>
<ellipse fill="none" stroke="black" cx="883" cy="-387" rx="60.8112" ry="18.3848"/>
<text text-anchor="middle" x="883" y="-383.4" font-family="Times Roman,serif" font-size="14.00">TipoMarca</text>
</g>
<!-- TipoMarca&#45;&gt;Marca -->
<g id="edge42" class="edge"><title>TipoMarca&#45;&gt;Marca</title>
<path fill="none" stroke="black" d="M920.759,-367.15C950.729,-351.394 992.357,-329.509 1021.89,-313.984"/>
<ellipse fill="none" stroke="black" cx="917.023" cy="-369.113" rx="4.00002" ry="4.00002"/>
<polygon fill="black" stroke="black" points="1022.17,-313.836 1033.12,-313.166 1026.6,-311.509 1031.02,-309.183 1031.02,-309.183 1031.02,-309.183 1026.6,-311.509 1028.93,-305.2 1022.17,-313.836 1022.17,-313.836"/>
</g>
<!-- Proyecto::Area -->
<g id="node18" class="node"><title>Proyecto::Area</title>
<ellipse fill="none" stroke="black" cx="2698" cy="-491" rx="84.1457" ry="18.3848"/>
<text text-anchor="middle" x="2698" y="-487.4" font-family="Times Roman,serif" font-size="14.00">Proyecto::Area</text>
</g>
<!-- Proyecto::Proyecto -->
<g id="node21" class="node"><title>Proyecto::Proyecto</title>
<ellipse fill="none" stroke="black" cx="2533" cy="-387" rx="103.945" ry="18.3848"/>
<text text-anchor="middle" x="2533" y="-383.4" font-family="Times Roman,serif" font-size="14.00">Proyecto::Proyecto</text>
</g>
<!-- Proyecto::Area&#45;&gt;Proyecto::Proyecto -->
<g id="edge44" class="edge"><title>Proyecto::Area&#45;&gt;Proyecto::Proyecto</title>
<path fill="none" stroke="black" d="M2663,-468.937C2635.69,-451.729 2597.87,-427.886 2570.06,-410.357"/>
<ellipse fill="none" stroke="black" cx="2666.63" cy="-471.225" rx="4.00002" ry="4.00002"/>
<polygon fill="black" stroke="black" points="2569.86,-410.235 2563.8,-401.096 2565.63,-407.569 2561.4,-404.903 2561.4,-404.903 2561.4,-404.903 2565.63,-407.569 2559,-408.71 2569.86,-410.235 2569.86,-410.235"/>
</g>
<!-- Proyecto::Usuario -->
<g id="node64" class="node"><title>Proyecto::Usuario</title>
<ellipse fill="none" stroke="black" cx="2753" cy="-387" rx="97.7889" ry="18.3848"/>
<text text-anchor="middle" x="2753" y="-383.4" font-family="Times Roman,serif" font-size="14.00">Proyecto::Usuario</text>
</g>
<!-- Proyecto::Area&#45;&gt;Proyecto::Usuario -->
<g id="edge46" class="edge"><title>Proyecto::Area&#45;&gt;Proyecto::Usuario</title>
<path fill="none" stroke="black" d="M2711.82,-464.868C2719.93,-449.528 2730.18,-430.159 2738.42,-414.576"/>
<ellipse fill="none" stroke="black" cx="2709.7" cy="-468.871" rx="4.00002" ry="4.00002"/>
<polygon fill="black" stroke="black" points="2738.58,-414.272 2747.23,-407.536 2740.91,-409.852 2743.25,-405.432 2743.25,-405.432 2743.25,-405.432 2740.91,-409.852 2739.27,-403.328 2738.58,-414.272 2738.58,-414.272"/>
</g>
<!-- Proyecto::Correspondencia -->
<g id="node19" class="node"><title>Proyecto::Correspondencia</title>
<ellipse fill="none" stroke="black" cx="3092" cy="-111" rx="142.128" ry="18.3848"/>
<text text-anchor="middle" x="3092" y="-107.4" font-family="Times Roman,serif" font-size="14.00">Proyecto::Correspondencia</text>
</g>
<!-- Proyecto::Adjunto -->
<g id="node66" class="node"><title>Proyecto::Adjunto</title>
<ellipse fill="none" stroke="black" cx="2877" cy="-19" rx="98.9949" ry="18.3848"/>
<text text-anchor="middle" x="2877" y="-15.4" font-family="Times Roman,serif" font-size="14.00">Proyecto::Adjunto</text>
</g>
<!-- Proyecto::Correspondencia&#45;&gt;Proyecto::Adjunto -->
<g id="edge48" class="edge"><title>Proyecto::Correspondencia&#45;&gt;Proyecto::Adjunto</title>
<path fill="none" stroke="black" d="M3043.11,-90.0788C3008.21,-75.1448 2961.44,-55.1316 2926.42,-40.1468"/>
<ellipse fill="none" stroke="black" cx="3046.87" cy="-91.6878" rx="4.00002" ry="4.00002"/>
<polygon fill="black" stroke="black" points="2926.07,-39.9961 2918.64,-31.9248 2921.47,-38.029 2916.87,-36.062 2916.87,-36.062 2916.87,-36.062 2921.47,-38.029 2915.1,-40.1991 2926.07,-39.9961 2926.07,-39.9961"/>
</g>
<!-- Proyecto::InstruccionDetalle -->
<g id="node20" class="node"><title>Proyecto::InstruccionDetalle</title>
<ellipse fill="none" stroke="black" cx="2252" cy="-111" rx="149.907" ry="18.3848"/>
<text text-anchor="middle" x="2252" y="-107.4" font-family="Times Roman,serif" font-size="14.00">Proyecto::InstruccionDetalle</text>
</g>
<!-- Proyecto::ItemCobro -->
<g id="node27" class="node"><title>Proyecto::ItemCobro</title>
<ellipse fill="none" stroke="black" cx="1927" cy="-203" rx="111.222" ry="18.3848"/>
<text text-anchor="middle" x="1927" y="-199.4" font-family="Times Roman,serif" font-size="14.00">Proyecto::ItemCobro</text>
</g>
<!-- Proyecto::InstruccionDetalle&#45;&gt;Proyecto::ItemCobro -->
<g id="edge50" class="edge"><title>Proyecto::InstruccionDetalle&#45;&gt;Proyecto::ItemCobro</title>
<path fill="none" stroke="black" d="M2102.97,-118.821C2022.29,-124.624 1936.52,-133.99 1924,-148 1917.64,-155.122 1916.69,-165.058 1917.91,-174.529"/>
<polygon fill="black" stroke="black" points="2103.31,-118.797 2113.6,-122.585 2108.3,-118.447 2113.29,-118.096 2113.29,-118.096 2113.29,-118.096 2108.3,-118.447 2112.97,-113.607 2103.31,-118.797 2103.31,-118.797"/>
<polygon fill="black" stroke="black" points="1917.94,-174.667 1915.52,-185.362 1918.93,-179.567 1919.93,-184.467 1919.93,-184.467 1919.93,-184.467 1918.93,-179.567 1924.34,-183.573 1917.94,-174.667 1917.94,-174.667"/>
</g>
<!-- Proyecto::InstruccionDetalle&#45;&gt;Proyecto::Adjunto -->
<g id="edge52" class="edge"><title>Proyecto::InstruccionDetalle&#45;&gt;Proyecto::Adjunto</title>
<path fill="none" stroke="black" d="M2356.73,-95.5834C2477.92,-77.7451 2675.32,-48.6879 2788.93,-31.9635"/>
<ellipse fill="none" stroke="black" cx="2352.59" cy="-96.1938" rx="4.00001" ry="4.00001"/>
<polygon fill="black" stroke="black" points="2789.09,-31.9399 2799.64,-34.9356 2794.04,-31.2117 2798.99,-30.4836 2798.99,-30.4836 2798.99,-30.4836 2794.04,-31.2117 2798.33,-26.0315 2789.09,-31.9399 2789.09,-31.9399"/>
</g>
<!-- Proyecto::ItemGasto -->
<g id="node22" class="node"><title>Proyecto::ItemGasto</title>
<ellipse fill="none" stroke="black" cx="2783" cy="-203" rx="111.222" ry="18.3848"/>
<text text-anchor="middle" x="2783" y="-199.4" font-family="Times Roman,serif" font-size="14.00">Proyecto::ItemGasto</text>
</g>
<!-- Proyecto::Proyecto&#45;&gt;Proyecto::ItemGasto -->
<g id="edge64" class="edge"><title>Proyecto::Proyecto&#45;&gt;Proyecto::ItemGasto</title>
<path fill="none" stroke="black" d="M2544.25,-360.966C2557.15,-332.143 2578.26,-288.137 2592,-276 2622.89,-248.705 2665.06,-231.152 2701.91,-220.119"/>
<ellipse fill="none" stroke="black" cx="2542.63" cy="-364.638" rx="4.00002" ry="4.00002"/>
<polygon fill="black" stroke="black" points="2702.05,-220.082 2712.9,-221.64 2706.85,-218.699 2711.66,-217.316 2711.66,-217.316 2711.66,-217.316 2706.85,-218.699 2710.41,-212.991 2702.05,-220.082 2702.05,-220.082"/>
<text text-anchor="middle" x="2633.5" y="-291.4" font-family="Times Roman,serif" font-size="14.00">item_gastos</text>
</g>
<!-- Proyecto::Instruccion -->
<g id="node25" class="node"><title>Proyecto::Instruccion</title>
<ellipse fill="none" stroke="black" cx="2252" cy="-203" rx="114.051" ry="18.3848"/>
<text text-anchor="middle" x="2252" y="-199.4" font-family="Times Roman,serif" font-size="14.00">Proyecto::Instruccion</text>
</g>
<!-- Proyecto::Proyecto&#45;&gt;Proyecto::Instruccion -->
<g id="edge58" class="edge"><title>Proyecto::Proyecto&#45;&gt;Proyecto::Instruccion</title>
<path fill="none" stroke="black" d="M2533.53,-360.354C2532.68,-335.998 2527.88,-300.191 2509,-276 2488.47,-249.7 2409.85,-229.905 2344.92,-217.61"/>
<ellipse fill="none" stroke="black" cx="2533.61" cy="-364.454" rx="4" ry="4"/>
<polygon fill="black" stroke="black" points="2344.86,-217.601 2335.85,-211.352 2339.95,-216.688 2335.03,-215.776 2335.03,-215.776 2335.03,-215.776 2339.95,-216.688 2334.21,-220.201 2344.86,-217.601 2344.86,-217.601"/>
</g>
<!-- Proyecto::ProyectoItem -->
<g id="node26" class="node"><title>Proyecto::ProyectoItem</title>
<ellipse fill="none" stroke="black" cx="2260" cy="-295" rx="126.072" ry="18.3848"/>
<text text-anchor="middle" x="2260" y="-291.4" font-family="Times Roman,serif" font-size="14.00">Proyecto::ProyectoItem</text>
</g>
<!-- Proyecto::Proyecto&#45;&gt;Proyecto::ProyectoItem -->
<g id="edge60" class="edge"><title>Proyecto::Proyecto&#45;&gt;Proyecto::ProyectoItem</title>
<path fill="none" stroke="black" d="M2469.31,-369.057C2449.57,-363.252 2427.81,-356.603 2408,-350 2376.6,-339.531 2341.89,-326.7 2313.98,-316.065"/>
<ellipse fill="none" stroke="black" cx="2473.22" cy="-370.199" rx="4.00001" ry="4.00001"/>
<polygon fill="black" stroke="black" points="2313.75,-315.976 2306.02,-308.2 2309.08,-314.189 2304.41,-312.402 2304.41,-312.402 2304.41,-312.402 2309.08,-314.189 2302.8,-316.605 2313.75,-315.976 2313.75,-315.976"/>
</g>
<!-- Proyecto::Proyecto&#45;&gt;Proyecto::ItemCobro -->
<g id="edge62" class="edge"><title>Proyecto::Proyecto&#45;&gt;Proyecto::ItemCobro</title>
<path fill="none" stroke="black" d="M2492.55,-365.355C2470.27,-352.269 2442.97,-334.229 2422,-314 2407.09,-299.616 2412.62,-286.898 2395,-276 2364.42,-257.088 2157.2,-229.946 2028.96,-214.646"/>
<ellipse fill="none" stroke="black" cx="2496.13" cy="-367.425" rx="4.00002" ry="4.00002"/>
<polygon fill="black" stroke="black" points="2028.65,-214.609 2019.26,-208.96 2023.69,-214.019 2018.72,-213.429 2018.72,-213.429 2018.72,-213.429 2023.69,-214.019 2018.19,-217.898 2028.65,-214.609 2028.65,-214.609"/>
<text text-anchor="middle" x="2463.5" y="-291.4" font-family="Times Roman,serif" font-size="14.00">item_cobros</text>
</g>
<!-- Proyecto::Proyecto&#45;&gt;Proyecto::Adjunto -->
<g id="edge66" class="edge"><title>Proyecto::Proyecto&#45;&gt;Proyecto::Adjunto</title>
<path fill="none" stroke="black" d="M2613.93,-372.268C2718.92,-352.977 2890.24,-320.805 2903,-314 2913.54,-308.379 2922,-306.942 2922,-295 2922,-295 2922,-295 2922,-111 2922,-87.3797 2909.88,-63.4999 2898.22,-45.9903"/>
<ellipse fill="none" stroke="black" cx="2609.8" cy="-373.027" rx="4.00001" ry="4.00001"/>
<polygon fill="black" stroke="black" points="2897.98,-45.6375 2895.92,-34.8662 2895.11,-41.5436 2892.23,-37.4497 2892.23,-37.4497 2892.23,-37.4497 2895.11,-41.5436 2888.55,-40.0333 2897.98,-45.6375 2897.98,-45.6375"/>
</g>
<!-- Proyecto::Contacto -->
<g id="node70" class="node"><title>Proyecto::Contacto</title>
<ellipse fill="none" stroke="black" cx="2789" cy="-295" rx="104.86" ry="18.3848"/>
<text text-anchor="middle" x="2789" y="-291.4" font-family="Times Roman,serif" font-size="14.00">Proyecto::Contacto</text>
</g>
<!-- Proyecto::Proyecto&#45;&gt;Proyecto::Contacto -->
<g id="edge54" class="edge"><title>Proyecto::Proyecto&#45;&gt;Proyecto::Contacto</title>
<path fill="none" stroke="black" d="M2588.88,-366.917C2631.65,-351.546 2690.37,-330.445 2733.14,-315.076"/>
<polygon fill="black" stroke="black" points="2588.77,-366.957 2577.84,-366.105 2584.07,-368.648 2579.36,-370.339 2579.36,-370.339 2579.36,-370.339 2584.07,-368.648 2580.88,-374.574 2588.77,-366.957 2588.77,-366.957"/>
<polygon fill="black" stroke="black" points="2733.14,-315.074 2744.08,-315.927 2737.85,-313.383 2742.55,-311.692 2742.55,-311.692 2742.55,-311.692 2737.85,-313.383 2741.03,-307.457 2733.14,-315.074 2733.14,-315.074"/>
</g>
<!-- Proyecto::Correspondencium -->
<g id="node72" class="node"><title>Proyecto::Correspondencium</title>
<ellipse fill="none" stroke="black" cx="1838" cy="-295" rx="152.028" ry="18.3848"/>
<text text-anchor="middle" x="1838" y="-291.4" font-family="Times Roman,serif" font-size="14.00">Proyecto::Correspondencium</text>
</g>
<!-- Proyecto::Proyecto&#45;&gt;Proyecto::Correspondencium -->
<g id="edge56" class="edge"><title>Proyecto::Proyecto&#45;&gt;Proyecto::Correspondencium</title>
<path fill="none" stroke="black" d="M2438.42,-375.603C2379.82,-368.455 2303,-358.932 2235,-350 2137.58,-337.205 2026.84,-321.79 1947.12,-310.54"/>
<ellipse fill="none" stroke="black" cx="2442.6" cy="-376.112" rx="4.00001" ry="4.00001"/>
<polygon fill="black" stroke="black" points="1946.96,-310.518 1937.69,-304.664 1942.01,-309.819 1937.06,-309.12 1937.06,-309.12 1937.06,-309.12 1942.01,-309.819 1936.43,-313.575 1946.96,-310.518 1946.96,-310.518"/>
<text text-anchor="middle" x="2294.5" y="-337.4" font-family="Times Roman,serif" font-size="14.00">correspondencias</text>
</g>
<!-- Proyecto::ItemGasto&#45;&gt;Proyecto::Adjunto -->
<g id="edge68" class="edge"><title>Proyecto::ItemGasto&#45;&gt;Proyecto::Adjunto</title>
<path fill="none" stroke="black" d="M2796.39,-176.782C2814.03,-142.27 2844.88,-81.8654 2862.87,-46.6526"/>
<ellipse fill="none" stroke="black" cx="2794.35" cy="-180.782" rx="4.00002" ry="4.00002"/>
<polygon fill="black" stroke="black" points="2863.03,-46.3365 2871.59,-39.4786 2865.31,-41.8839 2867.58,-37.4313 2867.58,-37.4313 2867.58,-37.4313 2865.31,-41.8839 2863.58,-35.384 2863.03,-46.3365 2863.03,-46.3365"/>
</g>
<!-- Proyecto::Item -->
<g id="node23" class="node"><title>Proyecto::Item</title>
<ellipse fill="none" stroke="black" cx="2260" cy="-387" rx="82.939" ry="18.3848"/>
<text text-anchor="middle" x="2260" y="-383.4" font-family="Times Roman,serif" font-size="14.00">Proyecto::Item</text>
</g>
<!-- Proyecto::Item&#45;&gt;Proyecto::ProyectoItem -->
<g id="edge72" class="edge"><title>Proyecto::Item&#45;&gt;Proyecto::ProyectoItem</title>
<path fill="none" stroke="black" d="M2260,-360.029C2260,-348.599 2260,-335.267 2260,-323.66"/>
<ellipse fill="none" stroke="black" cx="2260" cy="-364.382" rx="4" ry="4"/>
<polygon fill="black" stroke="black" points="2260,-323.59 2264.5,-313.59 2260,-318.59 2260,-313.59 2260,-313.59 2260,-313.59 2260,-318.59 2255.5,-313.59 2260,-323.59 2260,-323.59"/>
</g>
<!-- Proyecto::TipoInstruccion -->
<g id="node24" class="node"><title>Proyecto::TipoInstruccion</title>
<ellipse fill="none" stroke="black" cx="2519" cy="-203" rx="135.057" ry="18.3848"/>
<text text-anchor="middle" x="2519" y="-199.4" font-family="Times Roman,serif" font-size="14.00">Proyecto::TipoInstruccion</text>
</g>
<!-- Proyecto::TipoInstruccion&#45;&gt;Proyecto::InstruccionDetalle -->
<g id="edge74" class="edge"><title>Proyecto::TipoInstruccion&#45;&gt;Proyecto::InstruccionDetalle</title>
<path fill="none" stroke="black" d="M2517.82,-176.469C2515.98,-166.166 2512.07,-155.148 2504,-148 2494.01,-139.146 2437.38,-130.413 2380.33,-123.656"/>
<ellipse fill="none" stroke="black" cx="2518.36" cy="-180.525" rx="4.00001" ry="4.00001"/>
<polygon fill="black" stroke="black" points="2379.99,-123.617 2370.58,-117.991 2375.02,-123.039 2370.06,-122.461 2370.06,-122.461 2370.06,-122.461 2375.02,-123.039 2369.54,-126.931 2379.99,-123.617 2379.99,-123.617"/>
<text text-anchor="middle" x="2583" y="-153.4" font-family="Times Roman,serif" font-size="14.00">instruccion_detalles</text>
</g>
<!-- Proyecto::Instruccion&#45;&gt;Proyecto::InstruccionDetalle -->
<g id="edge76" class="edge"><title>Proyecto::Instruccion&#45;&gt;Proyecto::InstruccionDetalle</title>
<path fill="none" stroke="black" d="M2252,-176.029C2252,-164.599 2252,-151.267 2252,-139.66"/>
<ellipse fill="none" stroke="black" cx="2252" cy="-180.382" rx="4" ry="4"/>
<polygon fill="black" stroke="black" points="2252,-139.59 2256.5,-129.59 2252,-134.59 2252,-129.59 2252,-129.59 2252,-129.59 2252,-134.59 2247.5,-129.59 2252,-139.59 2252,-139.59"/>
<text text-anchor="middle" x="2320" y="-153.4" font-family="Times Roman,serif" font-size="14.00">instruccion_detalles</text>
</g>
<!-- Proyecto::Instruccion&#45;&gt;Proyecto::InstruccionDetalle -->
<g id="edge78" class="edge"><title>Proyecto::Instruccion&#45;&gt;Proyecto::InstruccionDetalle</title>
<path fill="none" stroke="black" d="M2340.38,-187.922C2362.61,-182.258 2382.13,-174.967 2389,-166 2403.04,-147.668 2390.23,-135.427 2367.73,-127.261"/>
<ellipse fill="none" stroke="black" cx="2336.31" cy="-188.912" rx="4.00001" ry="4.00001"/>
<polygon fill="black" stroke="black" points="2367.45,-127.169 2359.3,-119.828 2362.69,-125.641 2357.93,-124.112 2357.93,-124.112 2357.93,-124.112 2362.69,-125.641 2356.55,-128.397 2367.45,-127.169 2367.45,-127.169"/>
<text text-anchor="middle" x="2447" y="-153.4" font-family="Times Roman,serif" font-size="14.00">tareas_revision</text>
</g>
<!-- Proyecto::Instruccion&#45;&gt;Proyecto::InstruccionDetalle -->
<g id="edge80" class="edge"><title>Proyecto::Instruccion&#45;&gt;Proyecto::InstruccionDetalle</title>
<path fill="none" stroke="black" d="M2166.87,-187.359C2145.85,-181.704 2127.48,-174.56 2121,-166 2107.59,-148.273 2119.85,-136.21 2141.38,-128.022"/>
<ellipse fill="none" stroke="black" cx="2170.84" cy="-188.379" rx="4.00001" ry="4.00001"/>
<polygon fill="black" stroke="black" points="2141.65,-127.932 2152.56,-129.009 2146.39,-126.338 2151.13,-124.744 2151.13,-124.744 2151.13,-124.744 2146.39,-126.338 2149.69,-120.479 2141.65,-127.932 2141.65,-127.932"/>
<text text-anchor="middle" x="2184.5" y="-153.4" font-family="Times Roman,serif" font-size="14.00">tareas_pendientes</text>
</g>
<!-- Proyecto::ProyectoItem&#45;&gt;Proyecto::ItemGasto -->
<g id="edge70" class="edge"><title>Proyecto::ProyectoItem&#45;&gt;Proyecto::ItemGasto</title>
<path fill="none" stroke="black" d="M2340.8,-280.735C2403.79,-269.621 2493.45,-253.81 2572,-240 2616.5,-232.175 2666.29,-223.444 2706.33,-216.428"/>
</g>
<!-- Proyecto::ProyectoItem&#45;&gt;Proyecto::ItemCobro -->
<g id="edge86" class="edge"><title>Proyecto::ProyectoItem&#45;&gt;Proyecto::ItemCobro</title>
<path fill="none" stroke="black" d="M2200.85,-278.658C2139.73,-261.774 2044.98,-235.595 1984.49,-218.882"/>
</g>
<!-- Proyecto::ItemCobro&#45;&gt;Proyecto::InstruccionDetalle -->
<g id="edge82" class="edge"><title>Proyecto::ItemCobro&#45;&gt;Proyecto::InstruccionDetalle</title>
<path fill="none" stroke="black" d="M1943.94,-176.31C1952.04,-165.775 1962.67,-154.626 1975,-148 1998.79,-135.219 2054.27,-126.557 2109.38,-120.849"/>
<polygon fill="black" stroke="black" points="1943.86,-176.422 1934.36,-181.894 1940.93,-180.475 1938.01,-184.529 1938.01,-184.529 1938.01,-184.529 1940.93,-180.475 1941.66,-187.163 1943.86,-176.422 1943.86,-176.422"/>
<polygon fill="black" stroke="black" points="2109.71,-120.816 2120.1,-124.294 2114.68,-120.316 2119.66,-119.817 2119.66,-119.817 2119.66,-119.817 2114.68,-120.316 2119.21,-115.339 2109.71,-120.816 2109.71,-120.816"/>
<text text-anchor="middle" x="2043" y="-153.4" font-family="Times Roman,serif" font-size="14.00">instruccion_detalles</text>
</g>
<!-- Proyecto::Marca -->
<g id="node87" class="node"><title>Proyecto::Marca</title>
<ellipse fill="none" stroke="black" cx="1885" cy="-111" rx="90.0096" ry="18.3848"/>
<text text-anchor="middle" x="1885" y="-107.4" font-family="Times Roman,serif" font-size="14.00">Proyecto::Marca</text>
</g>
<!-- Proyecto::ItemCobro&#45;&gt;Proyecto::Marca -->
<g id="edge84" class="edge"><title>Proyecto::ItemCobro&#45;&gt;Proyecto::Marca</title>
<path fill="none" stroke="black" d="M1904.73,-176.053C1902.6,-172.781 1900.63,-169.393 1899,-166 1895.04,-157.768 1892.11,-148.284 1889.99,-139.535"/>
<polygon fill="black" stroke="black" points="1904.84,-176.204 1906.95,-186.965 1907.73,-180.284 1910.62,-184.363 1910.62,-184.363 1910.62,-184.363 1907.73,-180.284 1914.29,-181.761 1904.84,-176.204 1904.84,-176.204"/>
<polygon fill="black" stroke="black" points="1889.98,-139.492 1892.25,-128.764 1888.91,-134.607 1887.85,-129.722 1887.85,-129.722 1887.85,-129.722 1888.91,-134.607 1883.45,-130.679 1889.98,-139.492 1889.98,-139.492"/>
</g>
<!-- Consulta -->
<g id="node28" class="node"><title>Consulta</title>
<ellipse fill="none" stroke="black" cx="2062" cy="-295" rx="53.9477" ry="18.3848"/>
<text text-anchor="middle" x="2062" y="-291.4" font-family="Times Roman,serif" font-size="14.00">Consulta</text>
</g>
<!-- ConsultaDetalle -->
<g id="node34" class="node"><title>ConsultaDetalle</title>
<ellipse fill="none" stroke="black" cx="1318" cy="-203" rx="89.8026" ry="18.3848"/>
<text text-anchor="middle" x="1318" y="-199.4" font-family="Times Roman,serif" font-size="14.00">ConsultaDetalle</text>
</g>
<!-- Consulta&#45;&gt;ConsultaDetalle -->
<g id="edge88" class="edge"><title>Consulta&#45;&gt;ConsultaDetalle</title>
<path fill="none" stroke="black" d="M2015.65,-279.597C2010.09,-278.173 2004.45,-276.921 1999,-276 1811.71,-244.329 1760.4,-282.188 1572,-258 1506.97,-249.651 1433.93,-233.059 1382.92,-220.272"/>
<ellipse fill="none" stroke="black" cx="2019.86" cy="-280.74" rx="4.00001" ry="4.00001"/>
<polygon fill="black" stroke="black" points="1382.72,-220.221 1374.12,-213.407 1377.87,-218.995 1373.02,-217.769 1373.02,-217.769 1373.02,-217.769 1377.87,-218.995 1371.92,-222.132 1382.72,-220.221 1382.72,-220.221"/>
<text text-anchor="middle" x="1631.5" y="-245.4" font-family="Times Roman,serif" font-size="14.00">consulta_detalles</text>
</g>
<!-- Clase -->
<g id="node29" class="node"><title>Clase</title>
<ellipse fill="none" stroke="black" cx="1002" cy="-387" rx="36.977" ry="18.3848"/>
<text text-anchor="middle" x="1002" y="-383.4" font-family="Times Roman,serif" font-size="14.00">Clase</text>
</g>
<!-- Clase&#45;&gt;Marca -->
<g id="edge90" class="edge"><title>Clase&#45;&gt;Marca</title>
<path fill="none" stroke="black" d="M1017.2,-362.023C1024.79,-349.554 1033.98,-334.46 1041.71,-321.755"/>
<ellipse fill="none" stroke="black" cx="1014.88" cy="-365.845" rx="4.00002" ry="4.00002"/>
<polygon fill="black" stroke="black" points="1041.85,-321.54 1050.89,-315.338 1044.44,-317.269 1047.04,-312.998 1047.04,-312.998 1047.04,-312.998 1044.44,-317.269 1043.2,-310.658 1041.85,-321.54 1041.85,-321.54"/>
</g>
<!-- Post&#45;&gt;Adjunto -->
<g id="edge94" class="edge"><title>Post&#45;&gt;Adjunto</title>
<path fill="none" stroke="black" d="M1263.66,-84.4467C1267.44,-72.8405 1271.89,-59.21 1275.74,-47.4014"/>
<ellipse fill="none" stroke="black" cx="1262.31" cy="-88.5795" rx="4.00001" ry="4.00001"/>
<polygon fill="black" stroke="black" points="1275.84,-47.0972 1283.22,-38.985 1277.39,-42.3435 1278.94,-37.5899 1278.94,-37.5899 1278.94,-37.5899 1277.39,-42.3435 1274.66,-36.1948 1275.84,-47.0972 1275.84,-47.0972"/>
</g>
<!-- VistaMarca -->
<g id="node32" class="node"><title>VistaMarca</title>
<ellipse fill="none" stroke="black" cx="3223" cy="-491" rx="65.0538" ry="18.3848"/>
<text text-anchor="middle" x="3223" y="-487.4" font-family="Times Roman,serif" font-size="14.00">VistaMarca</text>
</g>
<!-- Marca&#45;&gt;Adjunto -->
<g id="edge98" class="edge"><title>Marca&#45;&gt;Adjunto</title>
<path fill="none" stroke="black" d="M1096.68,-279.517C1109.9,-273.547 1124.5,-266.178 1137,-258 1157.29,-244.725 1159.99,-238.244 1178,-222 1196.45,-205.358 1199.67,-199.613 1219,-184 1251.51,-157.733 1276.71,-167.083 1296,-130 1309.39,-104.259 1303.34,-70.627 1296.02,-47.1581"/>
<ellipse fill="none" stroke="black" cx="1092.74" cy="-281.252" rx="4.00002" ry="4.00002"/>
<polygon fill="black" stroke="black" points="1295.94,-46.9391 1297,-36.0247 1294.34,-42.2022 1292.74,-37.4653 1292.74,-37.4653 1292.74,-37.4653 1294.34,-42.2022 1288.48,-38.9058 1295.94,-46.9391 1295.94,-46.9391"/>
</g>
<!-- Marca&#45;&gt;Representante -->
<g id="edge108" class="edge"><title>Marca&#45;&gt;Representante</title>
<path fill="none" stroke="black" d="M1014.51,-280.223C1004.78,-274.795 995.678,-267.553 990,-258 985.369,-250.207 984.445,-240.636 985.116,-231.676"/>
<polygon fill="black" stroke="black" points="1014.58,-280.258 1021.53,-288.74 1019.05,-282.484 1023.53,-284.711 1023.53,-284.711 1023.53,-284.711 1019.05,-282.484 1025.54,-280.681 1014.58,-280.258 1014.58,-280.258"/>
<polygon fill="black" stroke="black" points="985.142,-231.486 990.969,-222.196 985.827,-226.533 986.511,-221.58 986.511,-221.58 986.511,-221.58 985.827,-226.533 982.054,-220.964 985.142,-231.486 985.142,-231.486"/>
<text text-anchor="middle" x="1017.5" y="-245.4" font-family="Times Roman,serif" font-size="14.00">agentes</text>
</g>
<!-- Marca&#45;&gt;Representante -->
<g id="edge110" class="edge"><title>Marca&#45;&gt;Representante</title>
<path fill="none" stroke="black" d="M1055.25,-266.214C1053.37,-257.247 1050.23,-247.7 1045,-240 1041.61,-235.005 1037.3,-230.475 1032.61,-226.435"/>
<polygon fill="black" stroke="black" points="1055.29,-266.464 1052.49,-277.065 1056.11,-271.397 1056.93,-276.329 1056.93,-276.329 1056.93,-276.329 1056.11,-271.397 1061.37,-275.593 1055.29,-266.464 1055.29,-266.464"/>
<polygon fill="black" stroke="black" points="1032.35,-226.236 1027.21,-216.549 1028.4,-223.17 1024.45,-220.104 1024.45,-220.104 1024.45,-220.104 1028.4,-223.17 1021.69,-223.659 1032.35,-226.236 1032.35,-226.236"/>
<text text-anchor="middle" x="1081" y="-245.4" font-family="Times Roman,serif" font-size="14.00">titulares</text>
</g>
<!-- Marca&#45;&gt;Proyecto::ItemCobro -->
<g id="edge106" class="edge"><title>Marca&#45;&gt;Proyecto::ItemCobro</title>
<path fill="none" stroke="black" d="M1108.63,-290.337C1155.8,-286.119 1228.11,-279.978 1291,-276 1468.6,-264.766 1514.71,-282.298 1691,-258 1749.36,-249.956 1814.49,-234.254 1861.52,-221.68"/>
<polygon fill="black" stroke="black" points="1108.34,-290.363 1097.97,-286.777 1103.36,-290.811 1098.38,-291.259 1098.38,-291.259 1098.38,-291.259 1103.36,-290.811 1098.78,-295.741 1108.34,-290.363 1108.34,-290.363"/>
<polygon fill="black" stroke="black" points="1861.62,-221.654 1872.45,-223.393 1866.45,-220.351 1871.28,-219.048 1871.28,-219.048 1871.28,-219.048 1866.45,-220.351 1870.1,-214.704 1861.62,-221.654 1861.62,-221.654"/>
<text text-anchor="middle" x="1823.5" y="-245.4" font-family="Times Roman,serif" font-size="14.00">item_cobros</text>
</g>
<!-- Marca&#45;&gt;Post -->
<g id="edge96" class="edge"><title>Marca&#45;&gt;Post</title>
<path fill="none" stroke="black" d="M1089.93,-275.893C1098.07,-270.492 1106.61,-264.345 1114,-258 1147.66,-229.099 1148.85,-214.577 1181,-184 1190.15,-175.293 1193.75,-174.608 1203,-166 1213.32,-156.392 1224.13,-145.175 1233.2,-135.385"/>
<ellipse fill="none" stroke="black" cx="1086.57" cy="-278.068" rx="4.00002" ry="4.00002"/>
<polygon fill="black" stroke="black" points="1233.3,-135.272 1243.38,-130.939 1236.68,-131.585 1240.06,-127.899 1240.06,-127.899 1240.06,-127.899 1236.68,-131.585 1236.74,-124.859 1233.3,-135.272 1233.3,-135.272"/>
</g>
<!-- Marca&#45;&gt;ConsultaDetalle -->
<g id="edge102" class="edge"><title>Marca&#45;&gt;ConsultaDetalle</title>
<path fill="none" stroke="black" d="M1103.04,-284.965C1125.7,-278.913 1153.14,-270.019 1176,-258 1187.49,-251.96 1187.5,-246.026 1199,-240 1214.46,-231.898 1231.99,-225.228 1248.75,-219.893"/>
<ellipse fill="none" stroke="black" cx="1099.11" cy="-285.983" rx="4.00001" ry="4.00001"/>
<polygon fill="black" stroke="black" points="1248.95,-219.832 1259.83,-221.207 1253.73,-218.368 1258.51,-216.904 1258.51,-216.904 1258.51,-216.904 1253.73,-218.368 1257.2,-212.602 1248.95,-219.832 1248.95,-219.832"/>
<text text-anchor="middle" x="1258.5" y="-245.4" font-family="Times Roman,serif" font-size="14.00">consulta_detalles</text>
</g>
<!-- Marca&#45;&gt;Marca -->
<g id="edge104" class="edge"><title>Marca&#45;&gt;Marca</title>
<path fill="none" stroke="black" d="M1102.37,-303.228C1110.93,-302.26 1117,-299.517 1117,-295 1117,-290.894 1111.99,-288.254 1104.64,-287.08"/>
<ellipse fill="none" stroke="black" cx="1098.29" cy="-303.428" rx="4" ry="4"/>
<polygon fill="black" stroke="black" points="1104.27,-287.055 1094.6,-281.887 1099.29,-286.716 1094.3,-286.377 1094.3,-286.377 1094.3,-286.377 1099.29,-286.716 1093.99,-290.867 1104.27,-287.055 1104.27,-287.055"/>
<text text-anchor="middle" x="1180.5" y="-291.4" font-family="Times Roman,serif" font-size="14.00">lemas_comerciales</text>
</g>
<!-- Marca&#45;&gt;Consultum -->
<g id="edge100" class="edge"><title>Marca&#45;&gt;Consultum</title>
<path fill="none" stroke="black" d="M1017.1,-281.324C1010.11,-279.319 1002.89,-277.446 996,-276 962.279,-268.923 870.793,-276.924 842,-258 799.804,-230.267 776.021,-173.84 764.902,-139.53"/>
<ellipse fill="none" stroke="black" cx="1021.31" cy="-282.58" rx="4.00001" ry="4.00001"/>
<polygon fill="black" stroke="black" points="764.801,-139.203 766.151,-128.321 763.326,-134.426 761.851,-129.648 761.851,-129.648 761.851,-129.648 763.326,-134.426 757.551,-130.976 764.801,-139.203 764.801,-139.203"/>
<text text-anchor="middle" x="836.5" y="-199.4" font-family="Times Roman,serif" font-size="14.00">consultas</text>
</g>
<!-- Contacto&#45;&gt;Proyecto -->
<g id="edge112" class="edge"><title>Contacto&#45;&gt;Proyecto</title>
<path fill="none" stroke="black" d="M1122.97,-82.7659C1127.78,-71.4113 1133.32,-58.3504 1138.12,-47.0177"/>
<polygon fill="black" stroke="black" points="1122.8,-83.1755 1114.75,-90.6261 1120.84,-87.779 1118.89,-92.3824 1118.89,-92.3824 1118.89,-92.3824 1120.84,-87.779 1123.04,-94.1388 1122.8,-83.1755 1122.8,-83.1755"/>
<polygon fill="black" stroke="black" points="1138.22,-46.7968 1146.26,-39.3462 1140.17,-42.1933 1142.12,-37.5899 1142.12,-37.5899 1142.12,-37.5899 1140.17,-42.1933 1137.98,-35.8335 1138.22,-46.7968 1138.22,-46.7968"/>
</g>
</g>
</svg>
